<svg version="1" xmlns="http://www.w3.org/2000/svg" width="682.667" height="682.667" viewBox="0 0 512.000000 512.000000"><path d="M277.7 66.6c-.1.1-5.4.5-11.7.8-6.3.4-12.4.9-13.5 1.1-1.1.2-4.2.7-6.8 1-24.8 3-57.4 13.1-80.2 24.8-8.2 4.3-17.6 9.7-18.5 10.8-.3.3-1.5 1.1-2.7 1.8-5.3 2.8-20.6 15.3-29 23.9-24.8 25-41.4 56.1-48.2 90.2-2.5 12.3-4 24.6-3.2 25.8.6.8 61.6 1 62.4.2.2-.3.7-5.5 1.1-11.5.3-6.1.8-12.4 1.1-14 .3-1.7.7-4.4 1-6 3.6-21.4 13.2-46.4 24.8-64.2 6.8-10.7 16.4-21.4 28.7-32.4 4-3.5 17.9-12.4 25.6-16.2 8-4 22.1-9 31.1-11.1 5.6-1.3 6.2-1.2 6.5.3.7 2.9.1 218.5-.6 222.1-2.6 13.7-6.8 20.1-15.7 24-6 2.5-15.4 4.6-25.9 5.6-4.1.3-8.4.8-9.5.9-1.1.1-2.8.3-3.7.4-1.6.1-1.8 1.2-1.8 8.1v8h169.5l-.1-8.2-.1-8.2-3.9-.1c-5.5-.3-17.9-1.5-20.6-2.1-1.3-.2-3.9-.7-5.8-1-16.6-2.6-24.8-10.5-27.5-26.4-.9-5.3-1.5-224.9-.6-225.4.6-.4 8.2.7 13.1 1.9 1.4.3 3.5.8 4.8 1.1 3.9.8 11.4 3.5 18 6.5 25 11.3 43.7 34.9 53.2 67.2 1.8 6 2.7 7.6 3.9 7.3.9-.3 4.8-1.2 8.8-2.1 6-1.4 7.1-1.9 6.8-3.5-.4-2-1.2-8-2-15.5-.3-2.8-1-8.2-1.6-12-.5-3.9-1.2-8.8-1.5-11-.3-2.2-.9-6.5-1.4-9.5-.6-3-1.2-7.1-1.4-9-.3-1.9-.7-4.9-1-6.5-.2-1.7-1-6.6-1.6-11-.7-4.4-1.3-8.6-1.5-9.4-.2-1.3-6.4-3.2-24-7-19-4.2-18-4-30.5-6.1-10.5-1.8-11.2-1.9-17-2.4-3-.3-8-.8-11-1.2-5.2-.5-35.8-1.2-36.3-.8z"/><path d="M65.3 273c-1.1.3-1.8 1.3-1.7 2.5.6 6.2 1.7 15.1 2 15.6.2.4.6 2.4 1 4.5 2.5 16.7 12.3 41.7 23.5 60.1 8.9 14.6 22.2 29.8 36.4 41.9 24.7 20.9 57.9 36.5 92 43 1.1.2 3.1.6 4.5.9 3.3.6 7.5 1.3 13 2 2.5.3 6.1.8 8 1.1 6 1 48.1 1.2 56.5.4 12.8-1.3 19.9-2.1 21.5-2.5.8-.2 3.5-.7 6-1 2.5-.3 5.9-.8 7.5-1.2 1.7-.3 3.9-.7 5-.9 11.4-1.7 41.1-8.2 43.8-9.6 2.2-1.1 7.6-12.5 15.2-31.8 4.6-11.8 18.5-53.3 18.5-55.3 0-.9-2.3-2.4-5.7-3.7-3.2-1.2-6.9-2.6-8.2-3.1-1.3-.5-2.5-.8-2.6-.7-.1.2-2 3.7-4.3 8-24 44.7-52.6 70.2-87.2 77.7-2.5.5-5.8 1.3-7.5 1.6-5 1.1-34.6 1.4-41.5.4-10-1.4-11-1.6-18.3-3.3-17.8-4.2-37.9-13.8-52.9-25.2-14.3-11-25.1-23.4-37.6-42.9-2.1-3.4-10.1-19.5-9.6-19.5.2 0-.3-1.1-1.2-2.5-.9-1.4-1.3-2.5-.9-2.5s.3-.6-.2-1.3c-.9-1-4.3-10.4-4.9-13.2-.1-.6-1.1-4.6-2.2-9-2.1-8.2-3.6-16.1-4.7-25-.3-2.7-.8-5.1-1-5.3-.6-.6-60.1-.8-62.2-.2z"/></svg>