<?xml version="1.0" encoding="UTF-8"?>
<svg width="128px" height="128px" viewBox="0 0 128 128" version="1.1" xmlns="http://www.w3.org/2000/svg" xmlns:xlink="http://www.w3.org/1999/xlink">
    <!-- Generator: Sketch 48.2 (47327) - http://www.bohemiancoding.com/sketch -->
    <title>worldwide</title>
    <desc>Created with Sketch.</desc>
    <defs>
        <linearGradient x1="100%" y1="0%" x2="0%" y2="100%" id="linearGradient-1">
            <stop stop-color="#007AAA" offset="0%"></stop>
            <stop stop-color="#007AAA" offset="100%"></stop>
        </linearGradient>
    </defs>
    <g id="3-Capital-Trading-Copy-2" stroke="none" stroke-width="1" fill="none" fill-rule="evenodd" transform="translate(-87.000000, -1311.000000)">
        <path d="M151,1327.5 C124.8085,1327.5 103.5,1348.8085 103.5,1375 C103.5,1401.1915 124.8085,1422.5 151,1422.5 C177.1915,1422.5 198.5,1401.1915 198.5,1375 C198.5,1348.8085 177.1915,1327.5 151,1327.5 Z M130.1735,1337.9645 C127.828,1341.099 126.17375,1344.779 125.4355,1348.776 C123.32925,1348.36325 121.305,1347.629 119.41825,1346.59175 C122.50225,1343.16675 126.13375,1340.24525 130.1735,1337.9645 Z M116.2615,1350.54325 C118.96675,1352.151 121.91775,1353.23925 125.00225,1353.777 L125.00225,1372.5 L108.5755,1372.5 C109.05025,1364.35875 111.8255,1356.8255 116.2615,1350.54325 Z M116.26125,1399.45625 C111.8255,1393.17425 109.05025,1385.64125 108.5755,1377.5 L125.00225,1377.5 L125.00225,1396.223 C121.918,1396.7605 118.9665,1397.84875 116.26125,1399.45625 Z M119.418,1403.408 C121.30475,1402.3705 123.32925,1401.6365 125.4355,1401.22375 C126.17375,1405.22075 127.828,1408.90075 130.1735,1412.0355 C126.1335,1409.75475 122.502,1406.833 119.418,1403.408 Z M148.5,1417.3345 C139.53875,1416.26575 132.2925,1409.53575 130.45575,1400.83025 L148.5,1400.83025 L148.5,1417.3345 Z M148.5,1395.83025 L130.00225,1395.83025 L130.00225,1377.5 L148.5,1377.5 L148.5,1395.83025 Z M148.5,1372.5 L130.00225,1372.5 L130.00225,1354.16975 L148.5,1354.16975 L148.5,1372.5 Z M148.5,1349.1695 L130.45575,1349.1695 C132.2925,1340.464 139.53875,1333.734 148.5,1332.66525 L148.5,1349.1695 Z M185.73875,1350.5435 C190.1745,1356.82575 192.94975,1364.35875 193.4245,1372.5 L176.99775,1372.5 L176.99775,1353.777 C180.08225,1353.2395 183.0335,1352.15125 185.73875,1350.5435 Z M182.582,1346.592 C180.69525,1347.6295 178.67075,1348.3635 176.5645,1348.77625 C175.82625,1344.77925 174.172,1341.09925 171.8265,1337.9645 C175.8665,1340.24525 179.498,1343.167 182.582,1346.592 Z M153.5,1332.66525 C162.46125,1333.734 169.7075,1340.464 171.54425,1349.1695 L153.5,1349.1695 L153.5,1332.66525 Z M153.5,1354.16975 L171.99775,1354.16975 L171.99775,1372.5 L153.5,1372.5 L153.5,1354.16975 Z M153.5,1377.5 L171.99775,1377.5 L171.99775,1395.83025 L153.5,1395.83025 L153.5,1377.5 Z M153.5,1417.33475 L153.5,1400.8305 L171.54425,1400.8305 C169.7075,1409.536 162.46125,1416.266 153.5,1417.33475 Z M171.8265,1412.0355 C174.172,1408.901 175.82625,1405.221 176.5645,1401.224 C178.67075,1401.63675 180.695,1402.371 182.58175,1403.40825 C179.49775,1406.83325 175.86625,1409.75475 171.8265,1412.0355 Z M185.7385,1399.45675 C183.03325,1397.849 180.08225,1396.76075 176.99775,1396.223 L176.99775,1377.5 L193.4245,1377.5 C192.94975,1385.64125 190.1745,1393.1745 185.7385,1399.45675 Z M188.49975,1423.808 C189.29675,1424.93525 189.02875,1426.4955 187.9015,1427.2925 C177.06775,1434.95175 164.3075,1439 151,1439 C143.638,1439 136.41925,1437.75925 129.544,1435.31225 C128.24325,1434.84925 127.564,1433.4195 128.027,1432.11875 C128.48975,1430.81775 129.91925,1430.1385 131.2205,1430.60175 C137.556,1432.85675 144.211,1434 151,1434 C163.268,1434 175.03025,1430.26875 185.015,1423.20975 C186.1425,1422.41225 187.7025,1422.68075 188.49975,1423.808 Z M174.94975,1315.63475 C176.23,1316.15175 176.84875,1317.60875 176.3315,1318.889 C175.8145,1320.1695 174.3575,1320.7885 173.07725,1320.27075 C166.06175,1317.437 158.63375,1316 151,1316 C138.41675,1316 126.4075,1319.9085 116.2705,1327.30325 C115.826,1327.6275 115.31025,1327.78375 114.79925,1327.78375 C114.02775,1327.78375 113.267,1327.42775 112.77725,1326.757 C111.96375,1325.6415 112.2085,1324.0775 113.32375,1323.264 C124.32225,1315.24075 137.35025,1311 151,1311 C159.2785,1311 167.3365,1312.55925 174.94975,1315.63475 Z M202.36525,1336.82475 C210.63675,1347.91625 215,1361.069 215,1375 C215,1383.32875 213.42225,1391.432 210.31075,1399.08475 C209.916,1400.05525 208.981,1400.64375 207.994,1400.64375 C207.6805,1400.64375 207.36175,1400.58425 207.05325,1400.459 C205.77425,1399.939 205.159,1398.4805 205.679,1397.2015 C208.54625,1390.14975 210,1382.68 210,1375 C210,1362.27775 206.054,1350.2595 198.56825,1340.0965 C197.3095,1340.69625 195.92275,1341.013 194.487,1341.013 C191.9495,1341.013 189.56375,1340.025 187.7695,1338.2305 C185.97525,1336.43625 184.987,1334.0505 184.987,1331.513 C184.987,1328.9755 185.975,1326.58975 187.7695,1324.7955 C189.56375,1323.00125 191.9495,1322.013 194.487,1322.013 C197.0245,1322.013 199.41025,1323.001 201.2045,1324.7955 C202.99875,1326.58975 203.987,1328.9755 203.987,1331.513 C203.987,1333.4345 203.4195,1335.26825 202.36525,1336.82475 Z M197.669,1334.69475 C198.519,1333.84475 198.987,1332.71475 198.987,1331.51275 C198.987,1330.31075 198.519,1329.1805 197.669,1328.33075 C196.819,1327.48075 195.689,1327.01275 194.487,1327.01275 C193.285,1327.01275 192.15475,1327.48075 191.305,1328.33075 C190.455,1329.18075 189.987,1330.31075 189.987,1331.51275 C189.987,1332.71475 190.455,1333.845 191.305,1334.69475 C192.155,1335.545 193.285,1336.01275 194.487,1336.01275 C195.689,1336.01275 196.81925,1335.54475 197.669,1334.69475 Z M112.81625,1413.1835 C115.7405,1416.108 115.7405,1420.866 112.81625,1423.79025 C111.35425,1425.25225 109.4335,1425.98325 107.513,1425.98325 C105.5925,1425.98325 103.672,1425.25225 102.20975,1423.79025 C99.798,1421.3785 99.3775,1417.72025 100.94375,1414.87125 C100.929,1414.85375 100.9125,1414.83825 100.898,1414.82025 C91.80575,1403.39525 87,1389.6255 87,1375 C87,1368.20975 88.059,1361.52325 90.148,1355.12625 C90.5765,1353.81375 91.988,1353.09675 93.3005,1353.52575 C94.613,1353.95425 95.3295,1355.36575 94.901,1356.67825 C92.976,1362.57325 92,1368.73775 92,1375 C92,1388.413 96.3855,1401.0435 104.682,1411.542 C107.3925,1410.4415 110.621,1410.98875 112.81625,1413.1835 Z M109.28075,1420.25475 C109.753,1419.7825 110.013,1419.15475 110.013,1418.487 C110.013,1417.81925 109.753,1417.1915 109.28075,1416.71925 C108.8085,1416.247 108.18075,1415.987 107.513,1415.987 C106.84525,1415.987 106.2175,1416.247 105.74525,1416.71925 C105.273,1417.1915 105.013,1417.81925 105.013,1418.487 C105.013,1419.15475 105.273,1419.7825 105.74525,1420.25475 C106.2175,1420.727 106.84525,1420.987 107.513,1420.987 C108.18075,1420.987 108.8085,1420.727 109.28075,1420.25475 Z M109.28,1329.745 C109.745,1330.21 110.0125,1330.855 110.0125,1331.5125 C110.0125,1332.17 109.745,1332.815 109.28,1333.28 C108.815,1333.745 108.17,1334.0125 107.5125,1334.0125 C106.855,1334.0125 106.21,1333.745 105.745,1333.28 C105.28,1332.815 105.0125,1332.17 105.0125,1331.5125 C105.0125,1330.855 105.28,1330.21 105.745,1329.745 C106.21,1329.28 106.855,1329.0125 107.5125,1329.0125 C108.1725,1329.0125 108.815,1329.28 109.28,1329.745 Z M196.255,1416.72 C196.72,1417.185 196.9875,1417.83 196.9875,1418.4875 C196.9875,1419.145 196.72,1419.79 196.255,1420.255 C195.79,1420.72 195.145,1420.9875 194.4875,1420.9875 C193.83,1420.9875 193.185,1420.72 192.72,1420.255 C192.255,1419.79 191.9875,1419.145 191.9875,1418.4875 C191.9875,1417.83 192.255,1417.185 192.72,1416.72 C193.185,1416.255 193.83,1415.9875 194.4875,1415.9875 C195.145,1415.9875 195.79,1416.255 196.255,1416.72 Z" id="worldwide" fill="url(#linearGradient-1)" fill-rule="nonzero"></path>
    </g>
</svg>