<?xml version="1.0" encoding="UTF-8"?>
<svg width="65px" height="128px" viewBox="0 0 65 128" version="1.1" xmlns="http://www.w3.org/2000/svg" xmlns:xlink="http://www.w3.org/1999/xlink">
    <!-- Generator: Sketch 48.2 (47327) - http://www.bohemiancoding.com/sketch -->
    <title>development</title>
    <desc>Created with Sketch.</desc>
    <defs>
        <linearGradient x1="100%" y1="0%" x2="0%" y2="100%" id="linearGradient-1">
            <stop stop-color="#007AAA" offset="0%"></stop>
            <stop stop-color="#007AAA" offset="100%"></stop>
        </linearGradient>
    </defs>
    <g id="3-Capital-Trading-Copy-2" stroke="none" stroke-width="1" fill="none" fill-rule="evenodd" transform="translate(-119.000000, -1515.000000)">
        <path d="M174.493243,1598.99952 L170.579478,1598.99952 C171.427494,1598.35302 172.238389,1597.64878 173.003635,1596.88604 C178.639266,1591.26886 181.163749,1583.23745 179.757162,1575.40204 C179.572309,1574.37205 178.763421,1573.56581 177.73005,1573.38157 C169.869162,1571.97958 161.811381,1574.49605 156.175499,1580.11299 C155.358836,1580.92698 154.609642,1581.79322 153.926163,1582.70071 L153.926163,1565.60616 L177.118054,1549.03185 C177.774947,1548.56236 178.164718,1547.80587 178.164718,1547.00012 L178.164718,1538.98447 C179.402505,1538.59372 180.567053,1537.91248 181.546749,1536.93624 C183.128658,1535.35926 184,1533.26279 184,1531.03306 C184,1528.80309 183.128658,1526.70661 181.546749,1525.12988 C178.281098,1521.87517 172.967517,1521.87492 169.701615,1525.12988 C166.435964,1528.38484 166.435964,1533.68128 169.701615,1536.93649 C170.698366,1537.92998 171.886491,1538.61847 173.148357,1539.00572 L173.148357,1545.71689 L153.926163,1559.45423 L153.926163,1548.7471 C153.926163,1547.36637 152.803251,1546.24713 151.417982,1546.24713 C150.032714,1546.24713 148.909802,1547.36637 148.909802,1548.7471 L148.909802,1569.21386 L129.84763,1555.59077 L129.84763,1539.00597 C131.109496,1538.61897 132.297621,1537.93023 133.294372,1536.93674 C136.560023,1533.68153 136.560023,1528.38534 133.294372,1525.13038 C130.02847,1521.87542 124.714889,1521.87567 121.449238,1525.13038 C118.183587,1528.38534 118.183587,1533.68178 121.449238,1536.93699 C122.428934,1537.91348 123.593482,1538.59472 124.831269,1538.98522 L124.831269,1556.87451 C124.831269,1557.68025 125.22104,1558.43674 125.877933,1558.90624 L148.909802,1575.36629 L148.909802,1582.36071 C148.297053,1581.57647 147.633389,1580.82548 146.919059,1580.11374 C141.283177,1574.49655 133.225397,1571.97983 125.364508,1573.38232 C124.331138,1573.56656 123.522249,1574.3728 123.337397,1575.40304 C121.930809,1583.23845 124.455543,1591.26986 130.090923,1596.88679 C130.856169,1597.64953 131.667064,1598.35377 132.51508,1599.00027 L128.342471,1599.00027 C124.193439,1599.00027 120.817929,1602.36473 120.817929,1606.50018 C120.817929,1610.25388 123.599251,1613.3721 127.215545,1613.91584 L133.762649,1641.08377 C134.033532,1642.20776 135.042072,1643 136.201604,1643 L166.63411,1643 C167.793642,1643 168.802182,1642.20776 169.073065,1641.08377 L175.620169,1613.91584 C179.236464,1613.3721 182.017785,1610.25413 182.017785,1606.50018 C182.017785,1602.36398 178.642276,1598.99952 174.493243,1598.99952 Z M173.248684,1528.66534 C173.90357,1528.0126 174.763876,1527.6861 175.623931,1527.6861 C176.484237,1527.6861 177.344543,1528.0126 177.999429,1528.66534 C178.633999,1529.29783 178.983388,1530.13857 178.983388,1531.03306 C178.983388,1531.92755 178.633999,1532.76829 177.999429,1533.40078 C176.689657,1534.70652 174.558707,1534.70652 173.248684,1533.40078 C171.938912,1532.09505 171.938912,1529.97082 173.248684,1528.66534 Z M124.996558,1533.40053 C123.686535,1532.09505 123.686535,1529.97082 124.996558,1528.66534 C125.651444,1528.0126 126.51175,1527.6861 127.372056,1527.6861 C128.232362,1527.6861 129.092417,1528.0126 129.747303,1528.66534 C131.057075,1529.97082 131.057075,1532.09505 129.747303,1533.40053 C128.437531,1534.70627 126.306581,1534.70627 124.996558,1533.40053 Z M159.722819,1583.6487 C163.771273,1579.61324 169.394865,1577.59352 175.054574,1578.06901 C175.531881,1583.71019 173.50502,1589.31538 169.456566,1593.35058 C166.26591,1596.53104 162.096561,1598.45877 157.702229,1598.90027 L163.980455,1592.64259 C164.9599,1591.66635 164.9599,1590.08337 163.980455,1589.10688 C163.001011,1588.13064 161.412831,1588.13064 160.433136,1589.10688 L154.15516,1595.36431 C154.598355,1590.98461 156.532163,1586.82891 159.722819,1583.6487 Z M128.039984,1578.06901 C133.698941,1577.59302 139.323536,1579.61374 143.371739,1583.6487 C146.504206,1586.77091 148.425221,1590.83336 148.913564,1595.12481 L142.875621,1589.10663 C141.896177,1588.13039 140.307997,1588.13039 139.328302,1589.10663 C138.348857,1590.08287 138.348857,1591.66585 139.328302,1592.64234 L145.628349,1598.92177 C141.147234,1598.52652 136.885835,1596.58779 133.637992,1593.35058 C129.589789,1589.31538 127.562928,1583.71019 128.039984,1578.06901 Z M174.493243,1608.9994 L161.826932,1608.9994 C160.441664,1608.9994 159.318751,1610.11864 159.318751,1611.49937 C159.318751,1612.8801 160.441664,1613.99934 161.826932,1613.99934 L170.440776,1613.99934 L164.657163,1637.99906 L138.178802,1637.99906 L132.395189,1613.99934 L141.134442,1613.99934 C142.51971,1613.99934 143.642623,1612.8801 143.642623,1611.49937 C143.642623,1610.11864 142.51971,1608.9994 141.134442,1608.9994 L128.342722,1608.9994 C126.959711,1608.9994 125.834541,1607.87791 125.834541,1606.49943 C125.834541,1605.12094 126.959711,1603.99946 128.342722,1603.99946 L174.493243,1603.99946 C175.876254,1603.99946 177.001424,1605.12094 177.001424,1606.49943 C177.001424,1607.87791 175.876254,1608.9994 174.493243,1608.9994 Z M153.321692,1609.73189 C152.852662,1609.2669 152.208059,1608.9994 151.548408,1608.9994 C150.886248,1608.9994 150.241646,1609.2669 149.772616,1609.73189 C149.306094,1610.19688 149.040227,1610.84188 149.040227,1611.49937 C149.040227,1612.15686 149.306094,1612.80185 149.772616,1613.26685 C150.241646,1613.73184 150.886248,1613.99934 151.548408,1613.99934 C152.208059,1613.99934 152.852662,1613.73184 153.321692,1613.26685 C153.788213,1612.80185 154.05408,1612.15686 154.05408,1611.49937 C154.05408,1610.84188 153.788213,1610.19688 153.321692,1609.73189 Z M151.417982,1515 C156.673373,1515 160.949069,1519.2617 160.949069,1524.49989 C160.949069,1529.73808 156.673373,1533.99978 151.417982,1533.99978 C146.162592,1533.99978 141.886896,1529.73808 141.886896,1524.49989 C141.886896,1519.2617 146.162592,1515 151.417982,1515 Z M151.417982,1528.99984 C153.907352,1528.99984 155.932707,1526.98111 155.932707,1524.49989 C155.932707,1522.01867 153.907352,1519.99994 151.417982,1519.99994 C148.928613,1519.99994 146.903258,1522.01867 146.903258,1524.49989 C146.903258,1526.98111 148.928613,1528.99984 151.417982,1528.99984 Z M153.191266,1538.57272 C153.657788,1539.03772 153.926163,1539.68271 153.926163,1540.3402 C153.926163,1540.9977 153.657788,1541.64269 153.191266,1542.10768 C152.724745,1542.57268 152.077634,1542.84017 151.417982,1542.84017 C150.758331,1542.84017 150.11122,1542.57268 149.644699,1542.10768 C149.178177,1541.64269 148.909802,1540.9977 148.909802,1540.3402 C148.909802,1539.68271 149.178177,1539.03772 149.644699,1538.57272 C150.11122,1538.10773 150.758331,1537.84023 151.417982,1537.84023 C152.077634,1537.84023 152.724745,1538.10773 153.191266,1538.57272 Z" id="development" fill="url(#linearGradient-1)" fill-rule="nonzero"></path>
    </g>
</svg>