<?xml version="1.0" encoding="UTF-8"?>
<svg width="32px" height="31px" viewBox="0 0 32 31" version="1.1" xmlns="http://www.w3.org/2000/svg" xmlns:xlink="http://www.w3.org/1999/xlink">
    <!-- Generator: Sketch 48.2 (47327) - http://www.bohemiancoding.com/sketch -->
    <title>linkedin-logo</title>
    <desc>Created with Sketch.</desc>
    <defs></defs>
    <g id="3-Capital-Trading-Copy-2" stroke="none" stroke-width="1" fill="none" fill-rule="evenodd" transform="translate(-824.000000, -3058.000000)" opacity="0.599999964">
        <g id="linkedin-logo" transform="translate(824.000000, 3058.000000)" fill="#FFFFFF" fill-rule="nonzero">
            <path d="M31.9344408,18.7502923 L31.9344408,30.5566589 L25.0898561,30.5566589 L25.0898561,19.5410116 C25.0898561,16.7737912 24.0998608,14.8852715 21.622348,14.8852715 C19.7310812,14.8852715 18.605587,16.1579954 18.1104408,17.3891415 C17.9298747,17.8292715 17.8833968,18.4418747 17.8833968,19.0579675 L17.8833968,30.5566589 L11.0365104,30.5566589 C11.0365104,30.5566589 11.1287239,11.899768 11.0365104,9.96677494 L17.8827285,9.96677494 L17.8827285,12.8853086 C17.8688445,12.9071369 17.8508028,12.9306729 17.8377355,12.9518329 L17.8827285,12.9518329 L17.8827285,12.8853086 C18.7923155,11.4843619 20.4167425,9.48306265 24.0527146,9.48306265 C28.5574385,9.4829884 31.9344408,12.4258747 31.9344408,18.7502923 Z M3.87437587,0.0414292343 C1.53206497,0.0414292343 0,1.57780046 0,3.59818097 C0,5.57453364 1.48774014,7.15753132 3.78349884,7.15753132 L3.82923434,7.15753132 C6.21690951,7.15753132 7.70182831,5.57483063 7.70182831,3.59818097 C7.65683527,1.57780046 6.21690951,0.0414292343 3.87437587,0.0414292343 Z M0.406645012,30.5566589 L7.25093271,30.5566589 L7.25093271,9.96677494 L0.406645012,9.96677494 L0.406645012,30.5566589 Z" id="LinkedIn"></path>
        </g>
    </g>
</svg>