<svg id="Layer_1" data-name="Layer 1" xmlns="http://www.w3.org/2000/svg" viewBox="0 0 792 612"><defs><style>.cls-1{fill:#231f20;}</style></defs><title>SOURCE</title><path class="cls-1" d="M391.61,188.49v93.29c0,20.7-2.3,23.53-26.54,25.12v7.43h78.37V306.9c-25.12-1.59-27.42-4.6-27.42-25.12V188c22.37,2.74,36.46,14.55,42.74,39.35l8-1.77c-1.59-14.68-3.54-25.83-5.66-40.51-7.43-1.24-26.54-7.44-49.18-7.44-59,0-102,33.06-105.24,84h29.17C336.07,227.34,355.38,194.9,391.61,188.49Z"/><path class="cls-1" d="M407.28,343.73c-38.34,0-66.74-27.7-70.93-70.3H306.64c2.66,39.28,33.33,80.38,98.51,80.38,19.64,0,43-5.66,50.78-7.43,4.6-8.31,11.86-28.66,15.39-41l-7.61-3C449.74,329.05,434.7,343.73,407.28,343.73Z"/><path class="cls-1" d="M151.89,416.3c-.49,0-.62.25-.8,1.23a10.38,10.38,0,0,1-2.09,4.06c-2.46,2.84-5.79,3.45-11.27,3.45-8.24,0-19.38-7.26-19.38-21.91,0-6,1.17-11.82,5.66-15.94,2.71-2.46,6.22-3.82,11.57-3.82,5.66,0,10.46,1.67,12.49,3.82a8.76,8.76,0,0,1,2.4,5.66c0,.86.13,1.36.62,1.36s.68-.5.74-1.42c.12-1.23.06-4.61.18-6.65s.31-2.89.31-3.38-.25-.68-.92-.74c-1.85-.18-3.82-.74-6.16-1a62.23,62.23,0,0,0-8.92-.61c-9.17,0-15,2.46-19.45,6.52a23.16,23.16,0,0,0-7.2,16.87c0,6,1.6,12.86,7.63,18.15,5.6,4.86,12.68,6.71,21.11,6.71,3.94,0,8.62-.43,11.08-1.41a2.18,2.18,0,0,0,1.6-1.79,57.65,57.65,0,0,0,1.35-8.19C152.44,416.73,152.32,416.3,151.89,416.3Z"/><path class="cls-1" d="M198.48,426.64a13.31,13.31,0,0,1-2-.18c-1-.19-2.53-.87-4.62-5.6-3.45-7.94-12.49-29.12-13.79-32-.55-1.17-.8-1.66-1.6-1.66-.55,0-1,.62-1.6,2.09L160.69,422c-1.11,2.65-2,4.25-4.49,4.62-.5,0-1.11.06-1.6.06a.54.54,0,0,0-.62.56c0,.43.31.55,1,.55,2.83,0,5.72-.19,6.27-.19,1.73,0,4.25.19,6,.19.56,0,.87-.12.87-.55s-.13-.56-.8-.56h-.8c-1.67,0-2.16-.55-2.16-1.48a9.65,9.65,0,0,1,.8-3.2l2.89-7.07c.13-.31.19-.37.5-.37h12.74a.51.51,0,0,1,.55.37l4.19,10.58a.83.83,0,0,1-.5,1.17c-.55.06-.67.25-.67.56s.61.36,1.6.43c4.55.12,8.49.12,10.4.12s2.34-.12,2.34-.55S199,426.64,198.48,426.64Zm-18.34-15H169.67c-.18,0-.3-.12-.18-.37l5.23-13c.06-.19.12-.5.31-.5s.18.31.25.5l5.1,13.11C180.45,411.5,180.38,411.62,180.14,411.62Z"/><path class="cls-1" d="M217.68,388.18c-2.46,0-6.77.12-9,.12-1.54,0-5-.12-7.81-.12-.8,0-1.23.12-1.23.49s.36.55.92.55a9.47,9.47,0,0,1,2.15.19c1.73.49,2.22,1,2.34,2.83s.06,3.14.06,11.08v9.23c0,4.8,0,8.92-.24,11.14-.19,1.54-.5,2.52-1.6,2.77a8.23,8.23,0,0,1-1.91.18c-.68,0-.86.31-.86.56s.37.55,1,.55c2.16,0,5.6-.19,6.84-.19,1.41,0,5.23.19,8.86.19.55,0,1-.19,1-.55s-.24-.56-.86-.56a21.47,21.47,0,0,1-2.77-.18c-1.6-.25-1.91-1.23-2.09-2.71-.25-2.28-.25-6.4-.25-11.2V391.81c0-.56.13-.87.43-1a8.77,8.77,0,0,1,2.34-.24,8.15,8.15,0,0,1,5.42,2,9.78,9.78,0,0,1,3.2,7.76c0,5.35-4.25,8.49-7.26,8.49-1.17,0-1.79.25-1.79.68s.37.55.68.55a12.16,12.16,0,0,0,1.6.07c7.69,0,13.6-5.3,13.6-12.68a9.09,9.09,0,0,0-2.71-6.28C226.91,390.39,224.45,388.18,217.68,388.18Z"/><path class="cls-1" d="M254.24,426.64a20.57,20.57,0,0,1-2.77-.18c-1.6-.25-2-1-2.16-2.47-.25-2.21-.25-6.4-.25-11.44v-9.23c0-7.94,0-9.42.13-11.08.12-1.85.55-2.59,2-2.83a7.11,7.11,0,0,1,1.6-.19c.55,0,.86-.12.86-.61,0-.31-.43-.43-1.11-.43-2.09,0-5.6.12-6.95.12-1.54,0-5.23-.12-7.26-.12-.87,0-1.3.12-1.3.43,0,.49.31.61.87.61a6.67,6.67,0,0,1,2,.25c1.17.37,1.73,1,1.85,2.77s.06,3.14.06,11.08v9.23c0,5,0,9.23-.24,11.38-.19,1.54-.5,2.28-1.6,2.53a8.23,8.23,0,0,1-1.91.18c-.68,0-.86.31-.86.56s.37.55,1,.55c2.16,0,5.85-.19,7.08-.19,1.48,0,5.17.19,8.74.19.62,0,1-.19,1-.55S254.85,426.64,254.24,426.64Z"/><path class="cls-1" d="M288.15,391.5c4.86.06,6.27,1.66,6.4,3l.06.56c.06.8.18,1,.61,1s.43-.3.5-.86c0-1.35.12-5.23.12-6.34,0-.8-.06-1.1-.43-1.1-.19,0-.62.12-1.48.24a23,23,0,0,1-3.69.25h-22a49.43,49.43,0,0,1-5.42-.25c-1.35-.18-1.91-.61-2.34-.61s-.49.3-.61,1c-.13.43-1.17,5.48-1.17,6.34,0,.55.12.86.49.86s.49-.24.61-.68a6.33,6.33,0,0,1,.93-1.78c.8-1.17,2.09-1.54,5.23-1.6l8.06-.18v21.17c0,4.8,0,8.92-.24,11.14-.19,1.54-.5,2.52-1.6,2.77a7.89,7.89,0,0,1-1.91.18c-.68,0-.86.31-.86.56s.37.55,1,.55c2.16,0,5.85-.19,7.08-.19,1.54,0,5.17.19,8.74.19.61,0,1.05-.19,1.05-.55s-.25-.56-.87-.56a20.79,20.79,0,0,1-2.77-.18c-1.6-.25-1.9-1.23-2.09-2.71-.24-2.28-.31-6.4-.31-11.2V391.38Z"/><path class="cls-1" d="M334.36,426.64a13.42,13.42,0,0,1-2-.18c-1-.19-2.52-.87-4.61-5.6-3.45-7.94-12.5-29.12-13.79-32-.55-1.17-.8-1.66-1.6-1.66-.55,0-1,.62-1.6,2.09L296.58,422c-1.11,2.65-2,4.25-4.5,4.62-.49,0-1.1.06-1.6.06a.53.53,0,0,0-.61.56c0,.43.31.55,1,.55,2.83,0,5.73-.19,6.28-.19,1.72,0,4.25.19,6,.19.56,0,.86-.12.86-.55s-.12-.56-.8-.56h-.8c-1.66,0-2.15-.55-2.15-1.48a9.65,9.65,0,0,1,.8-3.2l2.89-7.07c.13-.31.19-.37.49-.37h12.74a.52.52,0,0,1,.56.37l4.18,10.58a.82.82,0,0,1-.49,1.17c-.55.06-.68.25-.68.56s.62.36,1.6.43c4.56.12,8.5.12,10.41.12s2.33-.12,2.33-.55S334.86,426.64,334.36,426.64Zm-18.34-15H305.56c-.18,0-.31-.12-.18-.37l5.23-13c.06-.19.12-.5.31-.5s.18.31.24.5l5.11,13.11C316.33,411.5,316.27,411.62,316,411.62Z"/><path class="cls-1" d="M365,419.26c-.43,0-.55.3-.61.8a6.3,6.3,0,0,1-1.36,3.13c-1.35,1.42-3.44,1.48-6.34,1.48-4.18,0-6.27-.31-7.2-1.11-1.17-1-1.17-4.3-1.17-11v-9.23c0-7.94,0-9.42.13-11.08.12-1.85.55-2.59,2-2.83a11.29,11.29,0,0,1,2.09-.19c.68,0,1-.18,1-.55s-.37-.49-1.17-.49c-2.09,0-6.52.12-7.81.12-1.48,0-4.93-.12-7.45-.12-.8,0-1.17.12-1.17.49s.31.55.93.55a6.87,6.87,0,0,1,1.78.19c1.72.49,2.22,1,2.34,2.83s.06,3.14.06,11.08v9.23c0,4.8,0,8.92-.25,11.14-.18,1.54-.49,2.52-1.6,2.77a8.08,8.08,0,0,1-1.9.18c-.68,0-.87.31-.87.56s.37.55,1.05.55c1.11,0,2.46-.06,3.75-.12s2.47-.07,3.08-.07c2.22,0,4.49.07,7.2.13s5.85.18,9.73.18c2.83,0,3.07-.24,3.44-1.41a40,40,0,0,0,.8-6C365.44,419.81,365.32,419.26,365,419.26Z"/><path class="cls-1" d="M426.56,380.79a13.87,13.87,0,0,0-1.67.31,29.71,29.71,0,0,1-4.24.31H396.28c-2,0-4.37-.13-6.16-.31a14.58,14.58,0,0,1-2.64-.74c-.37,0-.56.37-.74,1.17-.13.49-1.3,6.09-1.3,7.08,0,.67.13,1,.56,1s.55-.25.68-.74a7.27,7.27,0,0,1,1-2.15c.92-1.36,2.4-1.66,6-1.79l9.17-.24V409.9c0,5.66,0,10.52-.31,13.11-.18,1.78-.55,3.14-1.78,3.39a10.33,10.33,0,0,1-2.22.24c-.74,0-1,.19-1,.49s.43.62,1.23.62c2.46,0,6.34-.19,7.75-.19,1.73,0,5.6.19,9.67.19.67,0,1.17-.19,1.17-.62s-.31-.49-1-.49a26.63,26.63,0,0,1-3.14-.24c-1.84-.25-2.21-1.61-2.4-3.33-.31-2.65-.31-7.51-.31-13.17V384.67l7.76.18c5.48.12,7.14,1.85,7.26,3.45l.06.68c.06.92.19,1.23.68,1.23s.49-.37.55-1c0-1.6.19-5.85.19-7.14C427.05,381.16,427,380.79,426.56,380.79Z"/><path class="cls-1" d="M511.61,426.64a13.31,13.31,0,0,1-2-.18c-1-.19-2.53-.87-4.62-5.6-3.44-7.94-12.49-29.12-13.78-32-.56-1.17-.8-1.66-1.6-1.66-.56,0-1,.62-1.61,2.09L473.82,422c-.79,1.89-1.5,3.24-2.73,4a13.23,13.23,0,0,1-3.92-2.88c-3.26-3.26-7.07-8-11.87-13.91,5.29-4.24,7.5-7.69,7.5-11.57a9.14,9.14,0,0,0-3.81-7.2c-2.89-1.91-6.83-2.21-10.28-2.21-1.66,0-6.59.12-8.43.12-1.11,0-4.56-.12-7.39-.12-.8,0-1.23.12-1.23.49s.37.55.93.55a9.47,9.47,0,0,1,2.15.19c1.72.49,2.22,1,2.34,2.83s.06,3.14.06,11.08v9.23c0,4.8,0,8.92-.25,11.14-.18,1.54-.49,2.52-1.6,2.77a8.08,8.08,0,0,1-1.9.18c-.68,0-.87.31-.87.56s.37.55,1.05.55c2.15,0,5.6-.19,6.65-.19.8,0,5.29.19,8.43.19.68,0,1.11-.19,1.11-.55a.63.63,0,0,0-.68-.56,21.07,21.07,0,0,1-2.65-.18c-1.66-.25-1.9-1.23-2.09-2.77-.25-2.22-.31-6.28-.31-11.14v-.74a.39.39,0,0,1,.43-.43l4.87.12a1.24,1.24,0,0,1,1,.37c.68.8,2.95,4.31,5.11,7.14,3,4.06,5.05,6.52,7.38,7.69a10.77,10.77,0,0,0,5.11,1h6a1.55,1.55,0,0,0,.86-.18c1.7,0,4,.18,5.66.18.56,0,.87-.12.87-.55s-.13-.56-.8-.56h-.8c-1.66,0-2.16-.55-2.16-1.48a9.65,9.65,0,0,1,.8-3.2l2.9-7.07c.12-.31.18-.37.49-.37h12.74a.51.51,0,0,1,.55.37l4.19,10.58a.83.83,0,0,1-.5,1.17c-.55.06-.67.25-.67.56s.61.36,1.6.43c4.55.12,8.49.12,10.4.12s2.34-.12,2.34-.55S512.1,426.64,511.61,426.64Zm-59.15-18.71c-.92.68-1.66.86-3.81.86a14.78,14.78,0,0,1-4.12-.49c-.37-.18-.5-.37-.5-.92V391.81a.64.64,0,0,1,.5-.74,18.63,18.63,0,0,1,3.2-.19c3.2,0,8.24,1.91,8.24,9.3C456,404.48,454.13,406.76,452.46,407.93Zm40.81,3.69H482.81c-.19,0-.31-.12-.19-.37l5.23-13c.06-.19.12-.5.31-.5s.18.31.25.5l5.1,13.11C493.58,411.5,493.51,411.62,493.27,411.62Z"/><path class="cls-1" d="M530.62,388.18c-3.26,0-7.13.12-8.8.12s-5-.12-7.81-.12c-.8,0-1.23.12-1.23.49s.37.55.92.55a9.47,9.47,0,0,1,2.15.19c1.73.49,2.22,1,2.34,2.83s.06,3.14.06,11.08v9.23c0,4.8,0,8.92-.24,11.14-.19,1.54-.5,2.52-1.6,2.77a8.18,8.18,0,0,1-1.91.18c-.68,0-.86.31-.86.56s.37.55,1,.55c1.11,0,2.47-.06,3.76-.12s2.46-.07,3.08-.07c1.35,0,3.32.13,5.47.31s4.5.31,6.47.31c10,0,15.69-3.69,18.15-6.16a20.26,20.26,0,0,0,5.91-14.58,18.29,18.29,0,0,0-5.11-13.29C546.5,388.18,537.39,388.18,530.62,388.18Zm14.53,33.72c-3.26,2.71-6.89,3.57-11.82,3.57-4.24,0-6.4-1.11-7.08-2.09-.43-.55-.55-2.4-.61-3.69-.06-1.05-.12-5.05-.12-10.59v-6.58c0-4.13,0-8.44.06-10.22a.92.92,0,0,1,.67-1.05,11.79,11.79,0,0,1,3.33-.37c4.24,0,10.15.56,15.14,5,2.4,2.09,5,6.4,5,13.05C549.76,414.33,548.66,419,545.15,421.9Z"/><path class="cls-1" d="M581.21,426.64a20.79,20.79,0,0,1-2.77-.18c-1.6-.25-2-1-2.15-2.47-.25-2.21-.25-6.4-.25-11.44v-9.23c0-7.94,0-9.42.13-11.08.12-1.85.55-2.59,2-2.83a7,7,0,0,1,1.6-.19c.55,0,.86-.12.86-.61,0-.31-.43-.43-1.11-.43-2.09,0-5.6.12-6.95.12-1.54,0-5.23-.12-7.26-.12-.87,0-1.3.12-1.3.43,0,.49.31.61.86.61a6.7,6.7,0,0,1,2,.25c1.17.37,1.73,1,1.85,2.77s.06,3.14.06,11.08v9.23c0,5,0,9.23-.24,11.38-.19,1.54-.5,2.28-1.6,2.53a8.23,8.23,0,0,1-1.91.18c-.68,0-.86.31-.86.56s.36.55,1,.55c2.16,0,5.85-.19,7.08-.19,1.48,0,5.17.19,8.74.19.61,0,1.05-.19,1.05-.55S581.83,426.64,581.21,426.64Z"/><path class="cls-1" d="M632.3,388.18c-2.65,0-4.68.12-5.3.12-1.17,0-4.06-.12-6.89-.12-.8,0-1.35.06-1.35.49s.18.55.86.55a9,9,0,0,1,2.83.31c1.29.49,1.78,1.41,1.84,4.62l.56,23.26h-.25c-.8-.74-8-8.13-11.69-11.76-7.88-7.69-16-16-16.68-16.67-.92-.93-1.66-1.73-2.34-1.73S593,388,593,389l-.49,31c-.07,4.55-.25,6-1.67,6.34a11.34,11.34,0,0,1-2.46.24c-.49,0-.86.25-.86.56,0,.49.49.55,1.23.55,2.77,0,5.36-.19,5.85-.19,1,0,3.51.19,7,.19.74,0,1.24-.12,1.24-.55s-.31-.56-.93-.56a9.11,9.11,0,0,1-2.83-.37c-1-.37-1.72-1.6-1.84-5.66l-.62-21.36h.18c1.05.93,6.77,7.27,12.68,12.93,5.66,5.48,12.43,11.94,15.82,15.08a3.21,3.21,0,0,0,2.21,1.1c.44,0,.87-.49.87-1.66l.61-33c.06-2.95.49-3.87,2-4.3a5.36,5.36,0,0,1,1.66-.19c.62,0,.93-.24.93-.55S633,388.18,632.3,388.18Z"/><path class="cls-1" d="M681.22,408.12c-1.78,0-4.61.12-6.34.12s-5.47-.12-8.31-.12c-.73,0-1.16.06-1.16.49s.36.55.86.55a9.3,9.3,0,0,1,2.09.19c1.72.49,2.28,1,2.34,2.83.06,1.6.06,3.57.06,6.15v4.8a1.73,1.73,0,0,1-1,1.85,8.9,8.9,0,0,1-3.81.55c-11.57,0-18.84-8.18-18.84-19.45,0-6.4,2-10.27,5-12.74,3.75-3,7.51-3.07,10.46-3.07,6.1,0,10.16,2.34,11.76,4a7,7,0,0,1,1.84,4.31c.06.43.19.67.56.67s.74-.37.74-1.17a70.65,70.65,0,0,1,.37-8.61c0-.37-.13-.56-.74-.62-1.3-.06-3.2-.37-4.31-.55a61.37,61.37,0,0,0-9.6-.86c-4.56,0-9.42.37-14.59,3.38a19.37,19.37,0,0,0-9.48,17.11c0,14.46,11.76,20.5,25.05,20.5,4.25,0,9.6-.56,13.23-2.34.68-.37.68-.43.68-1.85v-5.78c0-2.59,0-4.68.06-6.28.06-1.85.62-2.59,2.1-2.83a6.87,6.87,0,0,1,1.47-.19.62.62,0,0,0,.68-.55C682.33,408.18,682,408.12,681.22,408.12Z"/></svg>