<?xml version="1.0" encoding="UTF-8"?>
<svg width="33px" height="36px" viewBox="0 0 33 36" version="1.1" xmlns="http://www.w3.org/2000/svg" xmlns:xlink="http://www.w3.org/1999/xlink">
    <!-- Generator: Sketch 48.2 (47327) - http://www.bohemiancoding.com/sketch -->
    <title>SOURCE-01</title>
    <desc>Created with Sketch.</desc>
    <defs></defs>
    <g id="6" stroke="none" stroke-width="1" fill="none" fill-rule="evenodd" transform="translate(-42.000000, -30.000000)">
        <g id="SOURCE-01" transform="translate(42.000000, 30.000000)" fill="#000000" fill-rule="nonzero">
            <path d="M17.1281185,2.2797619 L17.1281185,20.7896825 C17.1281185,24.8968254 16.671324,25.4583333 11.857108,25.7738095 L11.857108,27.2480159 L27.4218815,27.2480159 L27.4218815,25.7738095 C22.432892,25.4583333 21.9760976,24.8611111 21.9760976,20.7896825 L21.9760976,2.18253968 C26.4189199,2.72619048 29.2172822,5.06944444 30.4645296,9.99007937 L32.0533798,9.63888889 C31.7375958,6.72619048 31.3503136,4.51388889 30.9292683,1.60119048 C29.4536237,1.35515873 25.6582578,0.125 21.1618118,0.125 C9.44404181,0.125 0.903972125,6.68452381 0.260487805,16.7916667 L6.05383275,16.7916667 C6.09752613,9.98809524 9.93261324,3.5515873 17.1281185,2.2797619 Z" id="Shape"></path>
            <path d="M20.2402787,33.0813492 C12.6257143,33.0813492 6.98529617,27.5853175 6.15313589,19.1329365 L0.252543554,19.1329365 C0.780836237,26.9265873 6.87209059,35.0813492 19.8172474,35.0813492 C23.7178746,35.0813492 28.3573171,33.9583333 29.9024739,33.6071429 C30.8160627,31.9583333 32.2579443,27.9206349 32.9590244,25.4722222 L31.4476307,24.8769841 C28.673101,30.1686508 25.6860627,33.0813492 20.2402787,33.0813492 Z" id="Shape"></path>
        </g>
    </g>
</svg>
