<?xml version="1.0" encoding="UTF-8"?>
<svg width="264px" height="116px" viewBox="0 0 264 116" version="1.1" xmlns="http://www.w3.org/2000/svg" xmlns:xlink="http://www.w3.org/1999/xlink">
    <!-- Generator: Sketch 48.2 (47327) - http://www.bohemiancoding.com/sketch -->
    <title>SOURCE-01 Copy</title>
    <desc>Created with Sketch.</desc>
    <defs></defs>
    <g id="6" stroke="none" stroke-width="1" fill="none" fill-rule="evenodd" transform="translate(-380.000000, -136.000000)">
        <g id="SOURCE-01-Copy" transform="translate(380.000000, 136.000000)" fill="#FFFFFF" fill-rule="nonzero">
            <path d="M129.980906,5.28904762 L129.980906,48.2320635 C129.980906,57.7606349 128.923066,59.0633333 117.774355,59.7952381 L117.774355,63.2153968 L153.819094,63.2153968 L153.819094,59.7952381 C142.265645,59.0633333 141.207805,57.6777778 141.207805,48.2320635 L141.207805,5.06349206 C151.496446,6.3247619 157.976864,11.7611111 160.865226,23.1769841 L164.544669,22.3622222 C163.81338,15.6047619 162.916516,10.4722222 161.941463,3.7147619 C158.524181,3.14396825 149.734913,0.29 139.322091,0.29 C112.186202,0.29 92.4091986,15.5080952 90.9190244,38.9566667 L104.335192,38.9566667 C104.436376,23.172381 113.317631,8.23968254 129.980906,5.28904762 Z" id="Shape"></path>
            <path d="M137.188014,76.7487302 C119.554286,76.7487302 106.492265,63.9979365 104.565157,44.3884127 L90.9006272,44.3884127 C92.1240418,62.4696825 106.230105,81.3887302 136.208362,81.3887302 C145.241394,81.3887302 155.985366,78.7833333 159.563624,77.9685714 C161.679303,74.1433333 165.018397,64.775873 166.641951,59.0955556 L163.141882,57.7146032 C156.716655,69.9912698 149.799303,76.7487302 137.188014,76.7487302 Z" id="Shape"></path>
            <path d="M19.7264111,110.153968 C19.5010453,110.153968 19.4412544,110.269048 19.3584669,110.720159 C19.18063,111.406812 18.8522673,112.045221 18.3972125,112.589048 C17.265784,113.896349 15.734216,114.177143 13.2137979,114.177143 C9.42397213,114.177143 4.30034843,110.835238 4.30034843,104.091587 C4.30034843,101.329683 4.8384669,98.6506349 6.90355401,96.754127 C8.14996516,95.621746 9.76432056,94.9957143 12.2249477,94.9957143 C14.8281533,94.9957143 17.0358188,95.7644444 17.9694774,96.754127 C18.6398284,97.4606092 19.0319378,98.3861123 19.0733101,99.3595238 C19.0733101,99.7553968 19.133101,99.9855556 19.3584669,99.9855556 C19.5838328,99.9855556 19.6712195,99.7553968 19.6988153,99.3319048 C19.754007,98.7657143 19.7264111,97.2098413 19.7816028,96.2707937 C19.8367944,95.331746 19.9241812,94.9404762 19.9241812,94.7149206 C19.9241812,94.4893651 19.8091986,94.4019048 19.5010453,94.3742857 C18.6501742,94.2914286 17.7441115,94.0336508 16.6678746,93.9139683 C15.3088441,93.7220426 13.9377803,93.6282026 12.5652962,93.6331746 C8.34773519,93.6331746 5.66634146,94.7655556 3.61965157,96.6344444 C1.49505077,98.6565392 0.297140248,101.465673 0.30815331,104.4 C0.30815331,107.161905 1.04404181,110.319683 3.8174216,112.754762 C6.39303136,114.991905 9.64933798,115.843492 13.5265505,115.843492 C15.338676,115.843492 17.4911498,115.645556 18.6225784,115.194444 C19.0105043,115.091893 19.2999915,114.767757 19.3584669,114.370476 C19.6556762,113.130374 19.8631826,111.870442 19.9793728,110.600476 C19.9793728,110.351905 19.9241812,110.153968 19.7264111,110.153968 Z" id="Shape"></path>
            <path d="M41.1545645,114.913651 C40.846297,114.909254 40.5388019,114.881556 40.2347038,114.830794 C39.7747735,114.743333 39.0710801,114.430317 38.1098258,112.253016 C36.5230662,108.598095 32.3652962,98.8485714 31.7673868,97.5228571 C31.5144251,96.9842857 31.3994425,96.7587302 31.0314983,96.7587302 C30.7785366,96.7587302 30.5715679,97.044127 30.2956098,97.7207937 L23.7737979,112.777778 C23.2632753,113.997619 22.8539373,114.734127 21.7087108,114.904444 C21.4787456,114.904444 21.1981882,114.932063 20.9728223,114.932063 C20.8992168,114.920939 20.8245069,114.943445 20.7692648,114.993383 C20.7140226,115.043321 20.684074,115.115425 20.6876655,115.189841 C20.6876655,115.387778 20.8302439,115.443016 21.1475958,115.443016 C22.4491986,115.443016 23.7783972,115.355556 24.0313589,115.355556 C24.8270383,115.355556 25.9860627,115.443016 26.7909408,115.443016 C27.0485017,115.443016 27.1910801,115.387778 27.1910801,115.189841 C27.1910801,114.991905 27.1312892,114.932063 26.8231359,114.932063 L26.4551916,114.932063 C25.687108,114.932063 25.4617422,114.678889 25.4617422,114.250794 C25.4990148,113.742293 25.6234807,113.24401 25.8296864,112.777778 L27.158885,109.523333 C27.218676,109.380635 27.2462718,109.353016 27.3888502,109.353016 L33.2483624,109.353016 C33.3630768,109.339727 33.4703894,109.41198 33.501324,109.523333 L35.4284321,114.393492 C35.4795252,114.494289 35.483404,114.612554 35.4390254,114.716488 C35.3946468,114.820421 35.3065658,114.899355 35.1984669,114.932063 C34.9455052,114.959683 34.8903136,115.047143 34.8903136,115.189841 C34.8903136,115.33254 35.1708711,115.355556 35.6262021,115.387778 C37.718885,115.443016 39.5310105,115.443016 40.4094774,115.443016 C41.2879443,115.443016 41.4857143,115.387778 41.4857143,115.189841 C41.4857143,114.991905 41.3937282,114.913651 41.1545645,114.913651 Z M32.7194425,108.008889 L27.9039721,108.008889 C27.8211847,108.008889 27.765993,107.953651 27.8211847,107.838571 L30.2266202,101.854444 C30.254216,101.766984 30.2818118,101.624286 30.3691986,101.624286 C30.4565854,101.624286 30.4519861,101.766984 30.4841812,101.854444 L32.8298258,107.889206 C32.8620209,107.944444 32.8298258,107.999683 32.7194425,107.999683 L32.7194425,108.008889 Z" id="Shape"></path>
            <path d="M49.9852265,97.2098413 C48.8537979,97.2098413 46.8714983,97.2650794 45.8458537,97.2650794 C45.137561,97.2650794 43.5462021,97.2098413 42.2537979,97.2098413 C41.8858537,97.2098413 41.6880836,97.2650794 41.6880836,97.4353968 C41.6880836,97.6057143 41.8536585,97.6885714 42.1112195,97.6885714 C42.4430894,97.6799124 42.7748605,97.7092564 43.1000697,97.7760317 C43.8957491,98.0015873 44.121115,98.2363492 44.1763066,99.0787302 C44.2314983,99.9211111 44.2039024,100.524127 44.2039024,104.179048 L44.2039024,108.427778 C44.2039024,110.637302 44.2039024,112.53381 44.0935192,113.555714 C44.0061324,114.264603 43.863554,114.715714 43.3576307,114.830794 C43.069037,114.892593 42.7742122,114.920401 42.4791638,114.913651 C42.1664111,114.913651 42.0836237,115.056349 42.0836237,115.171429 C42.0836237,115.286508 42.2537979,115.424603 42.543554,115.424603 C43.5370035,115.424603 45.1191638,115.337143 45.6894774,115.337143 C46.3379791,115.337143 48.0949129,115.424603 49.7644599,115.424603 C50.0174216,115.424603 50.2243902,115.337143 50.2243902,115.171429 C50.2243902,115.005714 50.114007,114.913651 49.8288502,114.913651 C49.40284,114.913565 48.9772818,114.885888 48.5548432,114.830794 C47.8189547,114.715714 47.6763763,114.264603 47.5935889,113.583333 C47.4786063,112.53381 47.4786063,110.637302 47.4786063,108.427778 L47.4786063,98.8807937 C47.4786063,98.6230159 47.5383972,98.4803175 47.6763763,98.4204762 C48.0285374,98.3354478 48.3905384,98.2982882 48.7526132,98.31 C49.6679993,98.3019352 50.5546928,98.6294038 51.2454355,99.2306349 C52.2475793,100.139368 52.7880548,101.451124 52.7172125,102.802698 C52.7172125,105.265397 50.7625087,106.710794 49.3781185,106.710794 C48.84,106.710794 48.5548432,106.825873 48.5548432,107.02381 C48.5548432,107.221746 48.7250174,107.276984 48.8675958,107.276984 C49.111918,107.303898 49.3577472,107.314662 49.6034843,107.309206 C53.1403484,107.309206 55.8585366,104.869524 55.8585366,101.472381 C55.8349499,100.383123 55.3877901,99.3460284 54.6121254,98.5815873 C54.2303833,98.2271429 53.0989547,97.2098413 49.9852265,97.2098413 Z" id="Shape"></path>
            <path d="M66.8002787,114.913651 C66.3742301,114.914774 65.9485922,114.887092 65.5262718,114.830794 C64.7903833,114.715714 64.6064111,114.370476 64.5328223,113.69381 C64.4178397,112.676508 64.4178397,110.747778 64.4178397,108.427778 L64.4178397,104.179048 C64.4178397,100.524127 64.4178397,99.8428571 64.4776307,99.0787302 C64.5328223,98.2271429 64.7305923,97.8865079 65.3974913,97.7760317 C65.6386838,97.7190652 65.8855648,97.6897234 66.1333798,97.6885714 C66.3863415,97.6885714 66.5289199,97.6333333 66.5289199,97.4077778 C66.5289199,97.2650794 66.3311498,97.2098413 66.0183972,97.2098413 C65.0571429,97.2098413 63.4427875,97.2650794 62.8218815,97.2650794 C62.1135889,97.2650794 60.416446,97.2098413 59.4827875,97.2098413 C59.0826481,97.2098413 58.884878,97.2650794 58.884878,97.4077778 C58.884878,97.6333333 59.0274564,97.6885714 59.2850174,97.6885714 C59.5956918,97.6800753 59.9058524,97.718878 60.204878,97.8036508 C60.7429965,97.9739683 61.0005575,98.2639683 61.0557491,99.0787302 C61.1109408,99.8934921 61.0833449,100.524127 61.0833449,104.179048 L61.0833449,108.427778 C61.0833449,110.729365 61.0833449,112.676508 60.9729617,113.66619 C60.8855749,114.375079 60.7429965,114.715714 60.2370732,114.830794 C59.9484795,114.892593 59.6536547,114.920401 59.3586063,114.913651 C59.0458537,114.913651 58.9630662,115.056349 58.9630662,115.171429 C58.9630662,115.286508 59.1332404,115.424603 59.4229965,115.424603 C60.416446,115.424603 62.1135889,115.337143 62.6793031,115.337143 C63.36,115.337143 65.0571429,115.424603 66.6990941,115.424603 C66.9842509,115.424603 67.1590244,115.337143 67.1590244,115.171429 C67.1590244,115.005714 67.0808362,114.913651 66.8002787,114.913651 Z" id="Shape"></path>
            <path d="M82.3965157,98.7380952 C84.631777,98.7657143 85.2802787,99.5022222 85.3400697,100.119048 L85.3676655,100.376825 C85.3952613,100.745079 85.450453,100.837143 85.648223,100.837143 C85.845993,100.837143 85.845993,100.699048 85.8781882,100.44127 C85.8781882,99.8198413 85.9333798,98.0338095 85.9333798,97.5228571 C85.9333798,97.1546032 85.905784,97.0165079 85.7356098,97.0165079 C85.648223,97.0165079 85.450453,97.071746 85.0549129,97.1269841 C84.4932024,97.210878 83.9256537,97.2493621 83.35777,97.2420635 L73.2393031,97.2420635 C72.4068839,97.2494102 71.5746898,97.2109926 70.7464808,97.1269841 C70.1255749,97.044127 69.8680139,96.8461905 69.6702439,96.8461905 C69.4724739,96.8461905 69.444878,96.9842857 69.3896864,97.3065079 C69.3298955,97.5044444 68.8515679,99.8290476 68.8515679,100.224921 C68.8515679,100.478095 68.9067596,100.620794 69.0769338,100.620794 C69.247108,100.620794 69.3022997,100.510317 69.3574913,100.307778 C69.4555954,100.013615 69.5999907,99.7370131 69.7852265,99.4884127 C70.1531707,98.9498413 70.7464808,98.7795238 72.190662,98.7519048 L75.8977003,98.6690476 L75.8977003,108.413968 C75.8977003,110.623492 75.8977003,112.52 75.7873171,113.541905 C75.6999303,114.250794 75.5573519,114.701905 75.0514286,114.816984 C74.7630638,114.880263 74.4680613,114.908088 74.1729617,114.899841 C73.8602091,114.899841 73.7774216,115.04254 73.7774216,115.157619 C73.7774216,115.272698 73.9475958,115.410794 74.2373519,115.410794 C75.2308014,115.410794 76.9279443,115.323333 77.4936585,115.323333 C78.2019512,115.323333 79.8714983,115.410794 81.5134495,115.410794 C81.794007,115.410794 81.9963763,115.323333 81.9963763,115.157619 C81.9963763,114.991905 81.8813937,114.899841 81.5962369,114.899841 C81.1701978,114.900659 80.7445804,114.872978 80.32223,114.816984 C79.5863415,114.701905 79.4483624,114.250794 79.3609756,113.569524 C79.2505923,112.52 79.2183972,110.623492 79.2183972,108.413968 L79.2183972,98.6828571 L82.3965157,98.7380952 Z" id="Shape"></path>
            <path d="M103.649895,114.913651 C103.341638,114.909062 103.034157,114.881366 102.730035,114.830794 C102.270105,114.743333 101.57101,114.430317 100.609756,112.253016 C99.0229965,108.598095 94.8606272,98.8485714 94.2673171,97.5228571 C94.0143554,96.9842857 93.8993728,96.7587302 93.5314286,96.7587302 C93.2784669,96.7587302 93.0714983,97.044127 92.7955401,97.7207937 L86.2737282,112.777778 C85.7632056,113.997619 85.3538676,114.734127 84.2040418,114.904444 C83.978676,114.904444 83.6981185,114.932063 83.4681533,114.932063 C83.3949327,114.920696 83.3205209,114.943277 83.2659377,114.993429 C83.2113544,115.04358 83.182526,115.115856 83.1875958,115.189841 C83.1875958,115.387778 83.3301742,115.443016 83.6475261,115.443016 C84.9491289,115.443016 86.2829268,115.355556 86.5358885,115.355556 C87.3269686,115.355556 88.4905923,115.443016 89.2954704,115.443016 C89.5530314,115.443016 89.6910105,115.387778 89.6910105,115.189841 C89.6910105,114.991905 89.6358188,114.932063 89.3230662,114.932063 L88.955122,114.932063 C88.1916376,114.932063 87.9662718,114.678889 87.9662718,114.250794 C88.0035444,113.742293 88.1280104,113.24401 88.334216,112.777778 L89.6634146,109.523333 C89.7232056,109.380635 89.7508014,109.353016 89.8887805,109.353016 L95.7482927,109.353016 C95.8641626,109.339309 95.9730035,109.411283 96.0058537,109.523333 L97.9283624,114.393492 C97.9813157,114.493415 97.9867061,114.611838 97.94305,114.716166 C97.8993939,114.820494 97.8112929,114.899729 97.7029965,114.932063 C97.4500348,114.959683 97.3902439,115.047143 97.3902439,115.189841 C97.3902439,115.33254 97.6754007,115.355556 98.1261324,115.387778 C100.223415,115.443016 102.03554,115.443016 102.914007,115.443016 C103.792474,115.443016 103.985645,115.387778 103.985645,115.189841 C103.985645,114.991905 103.879861,114.913651 103.649895,114.913651 Z M95.2147735,108.008889 L90.4039024,108.008889 C90.321115,108.008889 90.261324,107.953651 90.321115,107.838571 L92.7265505,101.854444 C92.7541463,101.766984 92.7817422,101.624286 92.8691289,101.624286 C92.9565157,101.624286 92.9519164,101.766984 92.9795122,101.854444 L95.3297561,107.889206 C95.3573519,107.944444 95.3297561,107.999683 95.2055749,107.999683 L95.2147735,108.008889 Z" id="Shape"></path>
            <path d="M117.74216,111.516508 C117.54439,111.516508 117.489199,111.654603 117.461603,111.884762 C117.389517,112.413476 117.173073,112.912034 116.836098,113.325556 C116.215192,113.979206 115.253937,114.006825 113.920139,114.006825 C111.997631,114.006825 111.036376,113.864127 110.608641,113.495873 C110.070523,113.035556 110.070523,111.516508 110.070523,108.432381 L110.070523,104.183651 C110.070523,100.52873 110.070523,99.8474603 110.130314,99.0833333 C110.185505,98.231746 110.383275,97.8911111 111.050174,97.7806349 C111.367184,97.7216749 111.688992,97.692395 112.011429,97.6931746 C112.324181,97.6931746 112.471359,97.6103175 112.471359,97.44 C112.471359,97.2696825 112.301185,97.2144444 111.93324,97.2144444 C110.971986,97.2144444 108.934495,97.2696825 108.341185,97.2696825 C107.660488,97.2696825 106.073728,97.2144444 104.914704,97.2144444 C104.54676,97.2144444 104.376585,97.2696825 104.376585,97.44 C104.376585,97.6103175 104.519164,97.6931746 104.804321,97.6931746 C105.079856,97.6864674 105.355084,97.7158704 105.622997,97.7806349 C106.414077,98.0061905 106.644042,98.2409524 106.699233,99.0833333 C106.754425,99.9257143 106.726829,100.52873 106.726829,104.183651 L106.726829,108.432381 C106.726829,110.641905 106.726829,112.538413 106.611847,113.560317 C106.529059,114.269206 106.386481,114.720317 105.875958,114.835397 C105.588962,114.89747 105.295627,114.925283 105.002091,114.918254 C104.689338,114.918254 104.601951,115.060952 104.601951,115.176032 C104.601951,115.291111 104.772125,115.429206 105.084878,115.429206 C105.595401,115.429206 106.216307,115.401587 106.809617,115.373968 C107.402927,115.346349 107.945645,115.341746 108.226202,115.341746 C109.247247,115.341746 110.291289,115.373968 111.5377,115.401587 C112.784111,115.429206 114.228293,115.484444 116.012822,115.484444 C117.314425,115.484444 117.424808,115.373968 117.594983,114.835397 C117.787155,113.925385 117.910155,113.002107 117.962927,112.073492 C117.94453,111.769683 117.889338,111.516508 117.74216,111.516508 Z" id="Shape"></path>
            <path d="M146.05547,93.8080952 C145.79677,93.8399121 145.540261,93.8875676 145.287387,93.9507937 C144.641591,94.0449056 143.989888,94.0925938 143.337282,94.0934921 L132.12878,94.0934921 C131.20892,94.0934921 130.118885,94.0336508 129.29561,93.9507937 C128.881079,93.8756726 128.474543,93.7616235 128.081394,93.6101587 C127.91122,93.6101587 127.823833,93.7804762 127.741045,94.1487302 C127.681254,94.3742857 127.143136,96.9520635 127.143136,97.4077778 C127.143136,97.7161905 127.202927,97.8680952 127.400697,97.8680952 C127.598467,97.8680952 127.653659,97.7530159 127.713449,97.5274603 C127.81161,97.1745977 127.966987,96.8402575 128.17338,96.5377778 C128.596516,95.911746 129.277213,95.7736508 130.932962,95.7138095 L135.150523,95.6033333 L135.150523,107.207937 C135.150523,109.813333 135.150523,112.050476 135.007944,113.242698 C134.925157,114.062063 134.754983,114.688095 134.189268,114.803175 C133.853908,114.876816 133.51156,114.913858 133.168223,114.913651 C132.827875,114.913651 132.708293,115.001111 132.708293,115.139206 C132.708293,115.277302 132.906063,115.424603 133.274007,115.424603 C134.405436,115.424603 136.189965,115.337143 136.838467,115.337143 C137.634146,115.337143 139.414077,115.424603 141.285993,115.424603 C141.594146,115.424603 141.824111,115.337143 141.824111,115.139206 C141.824111,114.94127 141.681533,114.913651 141.364181,114.913651 C140.881031,114.90537 140.398795,114.868481 139.92,114.803175 C139.073728,114.688095 138.903554,114.062063 138.816167,113.270317 C138.673589,112.050476 138.673589,109.813333 138.673589,107.207937 L138.673589,95.594127 L142.242648,95.6769841 C144.763066,95.7322222 145.526551,96.5285714 145.581742,97.2650794 L145.609338,97.5780952 C145.636934,98.0015873 145.696725,98.1442857 145.922091,98.1442857 C146.147456,98.1442857 146.147456,97.9739683 146.175052,97.6839683 C146.175052,96.9474603 146.262439,94.9911111 146.262439,94.3973016 C146.280836,93.9784127 146.25784,93.8080952 146.05547,93.8080952 Z" id="Shape"></path>
            <path d="M185.172544,114.913651 C184.864276,114.909254 184.556781,114.881556 184.252683,114.830794 C183.792753,114.743333 183.089059,114.430317 182.127805,112.253016 C180.545645,108.598095 176.383275,98.8485714 175.789965,97.5228571 C175.532404,96.9842857 175.422021,96.7587302 175.054077,96.7587302 C174.796516,96.7587302 174.594146,97.044127 174.313589,97.7207937 L167.791777,112.777778 C167.428432,113.647778 167.101882,114.269206 166.536167,114.619048 C165.858491,114.292464 165.247185,113.842963 164.73324,113.293333 C163.233868,111.792698 161.481533,109.610794 159.273868,106.890317 C161.706899,104.938571 162.723345,103.350476 162.723345,101.564444 C162.69061,100.245846 162.041913,99.0189308 160.97101,98.2501587 C159.641812,97.3709524 157.829686,97.2328571 156.242927,97.2328571 C155.479443,97.2328571 153.211986,97.2880952 152.365714,97.2880952 C151.855192,97.2880952 150.268432,97.2328571 148.966829,97.2328571 C148.598885,97.2328571 148.401115,97.2880952 148.401115,97.4584127 C148.401115,97.6287302 148.571289,97.7115873 148.82885,97.7115873 C149.16072,97.7029283 149.492491,97.7322723 149.8177,97.7990476 C150.60878,98.0246032 150.838746,98.2593651 150.893937,99.101746 C150.949129,99.944127 150.921533,100.547143 150.921533,104.202063 L150.921533,108.450794 C150.921533,110.660317 150.921533,112.556825 150.806551,113.57873 C150.723763,114.287619 150.581185,114.73873 150.070662,114.85381 C149.783666,114.915883 149.490331,114.943696 149.196794,114.936667 C148.884042,114.936667 148.796655,115.079365 148.796655,115.194444 C148.796655,115.309524 148.966829,115.447619 149.279582,115.447619 C150.268432,115.447619 151.855192,115.360159 152.338118,115.360159 C152.706063,115.360159 154.77115,115.447619 156.215331,115.447619 C156.528084,115.447619 156.725854,115.360159 156.725854,115.194444 C156.708926,115.037729 156.570025,114.923243 156.413101,114.936667 C156.005492,114.93473 155.598412,114.907056 155.194286,114.85381 C154.430801,114.73873 154.320418,114.287619 154.233031,113.57873 C154.118049,112.556825 154.090453,110.687937 154.090453,108.450794 L154.090453,108.110159 C154.084556,108.056068 154.103489,108.002219 154.141932,107.963744 C154.180374,107.925269 154.234178,107.906321 154.288223,107.912222 L156.528084,107.96746 C156.6992,107.951997 156.868164,108.014566 156.988014,108.137778 C157.300767,108.506032 158.344808,110.121746 159.338258,111.424444 C160.718049,113.293333 161.660906,114.425714 162.732544,114.964286 C163.466548,115.307805 164.273547,115.465863 165.082787,115.424603 L167.842369,115.424603 C167.979441,115.435746 168.116808,115.406971 168.237909,115.341746 C169.019791,115.341746 170.077631,115.424603 170.841115,115.424603 C171.098676,115.424603 171.241254,115.369365 171.241254,115.171429 C171.241254,114.973492 171.181463,114.913651 170.87331,114.913651 L170.505366,114.913651 C169.741882,114.913651 169.511916,114.660476 169.511916,114.232381 C169.549189,113.72388 169.673655,113.225597 169.879861,112.759365 L171.213659,109.504921 C171.26885,109.362222 171.296446,109.334603 171.439024,109.334603 L177.298537,109.334603 C177.413251,109.321314 177.520564,109.393567 177.551498,109.504921 L179.478606,114.375079 C179.529699,114.475876 179.533578,114.594142 179.4892,114.698075 C179.444821,114.802009 179.35674,114.880942 179.248641,114.913651 C178.995679,114.94127 178.940488,115.02873 178.940488,115.171429 C178.940488,115.314127 179.221045,115.337143 179.676376,115.369365 C181.769059,115.424603 183.581185,115.424603 184.459652,115.424603 C185.338118,115.424603 185.535889,115.369365 185.535889,115.171429 C185.535889,114.973492 185.397909,114.913651 185.172544,114.913651 Z M157.967666,106.301111 C157.54453,106.614127 157.204181,106.696984 156.215331,106.696984 C155.576239,106.711345 154.938317,106.635412 154.320418,106.471429 C154.150244,106.388571 154.090453,106.301111 154.090453,106.047937 L154.090453,98.8807937 C154.062204,98.7236374 154.164194,98.5725656 154.320418,98.5401587 C154.807589,98.4687377 155.300003,98.439476 155.792195,98.4526984 C157.263972,98.4526984 159.582021,99.3319048 159.582021,102.733651 C159.595819,104.713016 158.735749,105.76254 157.967666,106.301111 Z M176.737422,107.999683 L171.926551,107.999683 C171.839164,107.999683 171.783972,107.944444 171.839164,107.829365 L174.244599,101.845238 C174.272195,101.757778 174.299791,101.615079 174.387178,101.615079 C174.474564,101.615079 174.469965,101.757778 174.50216,101.845238 L176.847805,107.88 C176.88,107.944444 176.847805,107.999683 176.737422,107.999683 Z" id="Shape"></path>
            <path d="M193.915819,97.2098413 C192.416446,97.2098413 190.636516,97.2650794 189.868432,97.2650794 C189.100348,97.2650794 187.56878,97.2098413 186.276376,97.2098413 C185.908432,97.2098413 185.710662,97.2650794 185.710662,97.4353968 C185.710662,97.6057143 185.880836,97.6885714 186.133798,97.6885714 C186.465668,97.6799124 186.797439,97.7092564 187.122648,97.7760317 C187.918328,98.0015873 188.143693,98.2363492 188.198885,99.0787302 C188.254077,99.9211111 188.226481,100.524127 188.226481,104.179048 L188.226481,108.427778 C188.226481,110.637302 188.226481,112.53381 188.116098,113.555714 C188.028711,114.264603 187.886132,114.715714 187.380209,114.830794 C187.091648,114.892803 186.796798,114.920613 186.501742,114.913651 C186.18899,114.913651 186.106202,115.056349 186.106202,115.171429 C186.106202,115.286508 186.276376,115.424603 186.566132,115.424603 C187.076655,115.424603 187.70216,115.396984 188.29547,115.369365 C188.88878,115.341746 189.426899,115.337143 189.712056,115.337143 C190.332962,115.337143 191.239024,115.396984 192.227875,115.479841 C193.216725,115.562698 194.297561,115.62254 195.203624,115.62254 C199.802927,115.62254 202.41993,113.923968 203.551359,112.786984 C205.323723,111.007634 206.303769,108.587822 206.269547,106.075556 C206.343931,103.802337 205.496196,101.595706 203.919303,99.9579365 C201.219512,97.2098413 197.029547,97.2098413 193.915819,97.2098413 Z M200.598606,112.731746 C199.099233,113.979206 197.429686,114.375079 195.16223,114.375079 C193.212125,114.375079 192.218676,113.864127 191.905923,113.413016 C191.708153,113.159841 191.652962,112.308254 191.625366,111.714444 C191.59777,111.231111 191.570174,109.389841 191.570174,106.839683 L191.570174,103.810794 C191.570174,101.909683 191.570174,99.9257143 191.59777,99.1063492 C191.559333,98.8895617 191.693286,98.6794591 191.905923,98.6230159 C192.405742,98.4935612 192.921471,98.4362098 193.437491,98.4526984 C195.387596,98.4526984 198.105784,98.7104762 200.400836,100.754286 C201.504669,101.716349 202.700488,103.700317 202.700488,106.761429 C202.718885,109.247143 202.212962,111.396825 200.598606,112.731746 Z" id="Shape"></path>
            <path d="M217.183693,114.913651 C216.757654,114.914469 216.332037,114.886788 215.909686,114.830794 C215.173798,114.715714 214.989826,114.370476 214.920836,113.69381 C214.805854,112.676508 214.805854,110.747778 214.805854,108.427778 L214.805854,104.179048 C214.805854,100.524127 214.805854,99.8428571 214.865645,99.0787302 C214.920836,98.2271429 215.118606,97.8865079 215.785505,97.7760317 C216.02662,97.7186267 216.273552,97.6892789 216.521394,97.6885714 C216.774355,97.6885714 216.916934,97.6333333 216.916934,97.4077778 C216.916934,97.2650794 216.719164,97.2098413 216.406411,97.2098413 C215.445157,97.2098413 213.830801,97.2650794 213.209895,97.2650794 C212.501603,97.2650794 210.80446,97.2098413 209.870801,97.2098413 C209.470662,97.2098413 209.272892,97.2650794 209.272892,97.4077778 C209.272892,97.6333333 209.41547,97.6885714 209.668432,97.6885714 C209.979096,97.6802885 210.289225,97.7190872 210.588293,97.8036508 C211.126411,97.9739683 211.383972,98.2639683 211.439164,99.0787302 C211.494355,99.8934921 211.46676,100.524127 211.46676,104.179048 L211.46676,108.427778 C211.46676,110.729365 211.46676,112.676508 211.356376,113.66619 C211.26899,114.375079 211.126411,114.715714 210.620488,114.830794 C210.331894,114.892593 210.037069,114.920401 209.742021,114.913651 C209.429268,114.913651 209.346481,115.056349 209.346481,115.171429 C209.346481,115.286508 209.512056,115.424603 209.806411,115.424603 C210.799861,115.424603 212.497003,115.337143 213.062718,115.337143 C213.743415,115.337143 215.440557,115.424603 217.082509,115.424603 C217.363066,115.424603 217.565436,115.337143 217.565436,115.171429 C217.565436,115.005714 217.46885,114.913651 217.183693,114.913651 Z" id="Shape"></path>
            <path d="M240.681533,97.2098413 C239.462718,97.2098413 238.529059,97.2650794 238.243902,97.2650794 C237.705784,97.2650794 236.376585,97.2098413 235.074983,97.2098413 C234.707038,97.2098413 234.454077,97.2374603 234.454077,97.4353968 C234.454077,97.6333333 234.536864,97.6885714 234.849617,97.6885714 C235.288301,97.6667219 235.727664,97.7148906 236.15122,97.8312698 C236.74453,98.0568254 236.969895,98.4803175 236.997491,99.9579365 L237.255052,110.664921 L237.14007,110.664921 C236.772125,110.324286 233.460627,106.92254 231.763484,105.251587 C228.139233,101.711746 224.404599,97.8865079 224.091847,97.5780952 C223.668711,97.15 223.328362,96.781746 223.01561,96.781746 C222.702857,96.781746 222.606272,97.1269841 222.606272,97.5873016 L222.380906,111.857143 C222.348711,113.951587 222.265923,114.619048 221.612822,114.775556 C221.240828,114.85353 220.861432,114.890575 220.481394,114.886032 C220.256028,114.886032 220.085854,115.001111 220.085854,115.14381 C220.085854,115.369365 220.31122,115.396984 220.651568,115.396984 C221.925575,115.396984 223.116794,115.309524 223.34216,115.309524 C223.802091,115.309524 224.956516,115.396984 226.561672,115.396984 C226.902021,115.396984 227.131986,115.341746 227.131986,115.14381 C227.131986,114.945873 226.989408,114.886032 226.704251,114.886032 C226.264137,114.898055 225.82488,114.840577 225.402648,114.715714 C224.942718,114.545397 224.611568,113.979206 224.556376,112.110317 L224.27122,102.277937 L224.354007,102.277937 C224.836934,102.706032 227.467735,105.624444 230.185923,108.229841 C232.789129,110.752381 235.902857,113.726032 237.462021,115.171429 C237.719852,115.469068 238.085758,115.651346 238.478467,115.677778 C238.680836,115.677778 238.878606,115.452222 238.878606,114.913651 L239.159164,99.7231746 C239.18676,98.3652381 239.38453,97.941746 240.079024,97.7438095 C240.327386,97.6748919 240.585011,97.6453799 240.842509,97.6563492 C241.127666,97.6563492 241.270244,97.545873 241.270244,97.4031746 C241.270244,97.2604762 241.003484,97.2098413 240.681533,97.2098413 Z" id="Shape"></path>
            <path d="M263.181324,106.388571 C262.362648,106.388571 261.061045,106.44381 260.265366,106.44381 C259.469686,106.44381 257.749547,106.388571 256.443345,106.388571 C256.107596,106.388571 255.909826,106.41619 255.909826,106.614127 C255.909826,106.812063 256.075401,106.867302 256.305366,106.867302 C256.628055,106.860063 256.950526,106.889403 257.26662,106.954762 C258.0577,107.180317 258.315261,107.415079 258.342857,108.25746 C258.370453,108.993968 258.370453,109.900794 258.370453,111.088413 L258.370453,113.297937 C258.426908,113.653183 258.238407,114.002203 257.910523,114.149524 C257.351859,114.360847 256.753759,114.44726 256.158188,114.402698 C250.836794,114.402698 247.493101,110.637302 247.493101,105.449524 C247.493101,102.503492 248.412962,100.722063 249.792753,99.5850794 C251.517491,98.204127 253.246829,98.1719048 254.603624,98.1719048 C257.409199,98.1719048 259.276516,99.2490476 260.012404,100.013175 C260.513869,100.557543 260.812717,101.258149 260.858676,101.997143 C260.886272,102.195079 260.946063,102.305556 261.116237,102.305556 C261.286411,102.305556 261.456585,102.135238 261.456585,101.766984 C261.432675,100.443638 261.489505,99.1200652 261.62676,97.8036508 C261.62676,97.6333333 261.566969,97.545873 261.286411,97.518254 C260.688502,97.4906349 259.814634,97.3479365 259.304111,97.2650794 C257.84498,97.0174749 256.368651,96.8851091 254.88878,96.8692063 C252.791498,96.8692063 250.556237,97.0395238 248.178397,98.4250794 C245.410001,100.069206 243.743141,103.080175 243.818258,106.301111 C243.818258,112.957302 249.227038,115.737619 255.339512,115.737619 C257.294216,115.737619 259.754843,115.479841 261.42439,114.660476 C261.737143,114.490159 261.737143,114.46254 261.737143,113.808889 L261.737143,111.148254 C261.737143,109.956032 261.737143,108.993968 261.764739,108.25746 C261.792334,107.405873 262.049895,107.065238 262.730592,106.954762 C262.952147,106.90129 263.178832,106.871966 263.40669,106.867302 C263.562785,106.883413 263.702553,106.77027 263.719443,106.614127 C263.691847,106.41619 263.54007,106.388571 263.181324,106.388571 Z" id="Shape"></path>
        </g>
    </g>
</svg>