<?xml version="1.0" encoding="UTF-8"?>
<svg width="28px" height="30px" viewBox="0 0 28 30" version="1.1" xmlns="http://www.w3.org/2000/svg" xmlns:xlink="http://www.w3.org/1999/xlink">
    <!-- Generator: Sketch 48.2 (47327) - http://www.bohemiancoding.com/sketch -->
    <title>SOURCE-01</title>
    <desc>Created with Sketch.</desc>
    <defs></defs>
    <g id="3-Capital-Trading-Copy-2" stroke="none" stroke-width="1" fill="none" fill-rule="evenodd" transform="translate(-42.000000, -3168.000000)" opacity="0.300000012">
        <g id="SOURCE-01" transform="translate(42.000000, 3168.000000)" fill="#FFFFFF" fill-rule="nonzero">
            <path d="M14.5098497,1.81339652 L14.5098497,17.3909068 C14.5098497,20.8473808 14.1169067,21.3199326 9.97562846,21.5854299 L9.97562846,22.826087 L23.3647362,22.826087 L23.3647362,21.5854299 C19.0731146,21.3199326 18.6801715,20.8173245 18.6801715,17.3909068 L18.6801715,1.7315766 C22.5019699,2.18910022 24.9091733,4.16112719 25.9820787,8.30221685 L27.3488372,8.00666327 C27.077194,5.55540536 26.7440466,3.69358481 26.3818556,1.2423269 C25.1124786,1.03527241 21.8476343,0 17.9797078,0 C7.89986402,0 0.553537185,5.52033968 0,14.0262714 L4.98354311,14.0262714 C5.02112897,8.30054706 8.32014225,2.88373461 14.5098497,1.81339652 Z" id="Shape"></path>
            <path d="M17.1114889,28.2825059 C10.5926646,28.2825059 5.76390576,23.5628049 5.05149381,16.3043478 L0,16.3043478 C0.452271071,22.9971224 5.66699053,30 16.749332,30 C20.0886568,30 24.0604809,29.0356134 25.3832888,28.7340297 C26.1654117,27.3181194 27.3998057,23.8507578 28,21.7481907 L26.7060967,21.2370317 C24.3308234,25.7812348 21.7736216,28.2825059 17.1114889,28.2825059 Z" id="Shape"></path>
        </g>
    </g>
</svg>