<?xml version="1.0" encoding="UTF-8"?>
<svg width="32px" height="28px" viewBox="0 0 32 28" version="1.1" xmlns="http://www.w3.org/2000/svg" xmlns:xlink="http://www.w3.org/1999/xlink">
    <!-- Generator: Sketch 48.2 (47327) - http://www.bohemiancoding.com/sketch -->
    <title>media</title>
    <desc>Created with Sketch.</desc>
    <defs></defs>
    <g id="3-Capital-Trading-Copy-2" stroke="none" stroke-width="1" fill="none" fill-rule="evenodd" transform="translate(-891.000000, -3061.000000)" opacity="0.599999964">
        <g id="media" transform="translate(891.000000, 3061.000000)" fill="#FFFFFF" fill-rule="nonzero">
            <g id="Group">
                <path d="M31.5808696,5.383 L21.5634783,0.343 C21.5182609,0.32025 21.4678261,0.30975 21.4191304,0.308 C21.4156522,0.308 21.4121739,0.30625 21.4086957,0.30625 C21.2869565,0.30625 21.1652174,0.3675 21.1008696,0.47425 L14.9269565,10.57 L21.8191304,21.84 L31.6782609,5.719 C31.7495652,5.60175 31.706087,5.446 31.5808696,5.383 Z" id="Shape"></path>
                <polygon id="Shape" points="11.6608696 7.02275 11.6608696 17.9025 21.2713043 22.736"></polygon>
                <path d="M22.1113043,23.1525 L30.9356522,27.59225 C31.4173913,27.83375 31.8121739,27.58875 31.8121739,27.048 L31.8121739,7.2905 L22.1113043,23.1525 Z" id="Shape"></path>
                <path d="M10.6,5.43375 L1.35652174,0.784 L0.772173913,0.49 C0.688695652,0.448 0.608695652,0.427 0.535652174,0.427 C0.433043478,0.427 0.346086957,0.46725 0.283478261,0.5425 C0.224347826,0.616 0.187826087,0.721 0.187826087,0.85225 L0.187826087,22.07975 C0.187826087,22.44025 0.450434783,22.869 0.772173913,23.03 L9.85391304,27.59925 C9.98086957,27.66225 10.1008696,27.692 10.2086957,27.692 C10.5147826,27.692 10.7286957,27.454 10.7286957,27.05325 L10.7286957,5.6455 C10.7304348,5.55625 10.68,5.474 10.6,5.43375 Z" id="Shape"></path>
            </g>
        </g>
    </g>
</svg>