<?xml version="1.0" encoding="UTF-8"?>
<svg width="111px" height="128px" viewBox="0 0 111 128" version="1.1" xmlns="http://www.w3.org/2000/svg" xmlns:xlink="http://www.w3.org/1999/xlink">
    <!-- Generator: Sketch 48.2 (47327) - http://www.bohemiancoding.com/sketch -->
    <title>view</title>
    <desc>Created with Sketch.</desc>
    <defs>
        <linearGradient x1="100%" y1="0%" x2="0%" y2="100%" id="linearGradient-1">
            <stop stop-color="#007AAA" offset="0%"></stop>
            <stop stop-color="#007AAA" offset="100%"></stop>
        </linearGradient>
    </defs>
    <g id="3-Capital-Trading-Copy-2" stroke="none" stroke-width="1" fill="none" fill-rule="evenodd" transform="translate(-95.000000, -1098.000000)">
        <path d="M203.499756,1141.33425 C204.880503,1141.33425 205.99975,1142.4535 206,1143.83375 L206,1153.91575 C206,1153.9165 206,1153.91725 206,1153.918 L206,1153.93275 C205.99575,1155.311 204.877253,1156.4255 203.500006,1156.4255 C203.497506,1156.4255 203.495006,1156.4255 203.492506,1156.4255 C202.111759,1156.4215 200.995761,1155.29875 200.999761,1153.91825 L200.999761,1153.8005 L200.999761,1146.334 L195.124274,1146.334 C193.945777,1146.334 192.927529,1145.51125 192.68003,1144.35925 C191.586032,1139.26775 189.595537,1134.46425 186.763543,1130.08225 C186.124045,1129.0925 186.262294,1127.79075 187.095543,1126.9575 L191.230783,1122.8225 L181.140306,1112.73925 L177.008815,1116.87075 C176.175567,1117.70375 174.87382,1117.84225 173.884072,1117.2025 C169.502582,1114.371 164.699093,1112.3805 159.607104,1111.2865 C158.455107,1111.039 157.632359,1110.0205 157.632359,1108.84225 L157.632359,1103 L143.367141,1103 L143.367141,1108.84225 C143.367141,1110.0205 142.544393,1111.039 141.392396,1111.2865 C136.300657,1112.3805 131.497168,1114.371 127.115428,1117.2025 C126.12593,1117.84225 124.823933,1117.7035 123.990685,1116.87075 L119.859194,1112.73925 L109.768717,1122.8225 L113.903707,1126.95775 C114.736956,1127.791 114.875205,1129.09275 114.235707,1130.0825 C111.403713,1134.4645 109.413218,1139.268 108.31922,1144.3595 C108.071721,1145.5115 107.053223,1146.33425 105.874976,1146.33425 L100.007739,1146.33425 L99.9999887,1153.862 L99.9999887,1153.926 C99.9999887,1155.3065 98.8807413,1156.426 97.4999944,1156.426 C96.1192475,1156.426 95,1155.3065 95,1153.926 L95,1153.916 C95,1153.91525 95,1153.9145 95,1153.91375 L95,1153.8595 L95,1153.801 C95,1153.8 95,1153.79925 95,1153.7985 L95.0105,1143.83125 C95.012,1142.45175 96.1307475,1141.334 97.5104943,1141.334 L103.89873,1141.334 C105.013977,1137.0325 106.713974,1132.93025 108.970469,1129.09525 L104.464479,1124.5895 C103.99548,1124.1205 103.73223,1123.4845 103.73223,1122.82125 C103.73248,1122.15825 103.99623,1121.52225 104.465229,1121.0535 L118.092698,1107.436 C119.069196,1106.46025 120.651442,1106.46075 121.62769,1107.4365 L126.12868,1111.93775 C129.963421,1109.68125 134.065412,1107.98125 138.367402,1106.866 L138.367402,1100.5 C138.367402,1099.1195 139.48665,1098 140.867397,1098 L160.132353,1098 C161.5131,1098 162.632348,1099.1195 162.632348,1100.5 L162.632348,1106.86625 C166.934338,1107.9815 171.036329,1109.6815 174.87107,1111.938 L179.37206,1107.43675 C180.348308,1106.461 181.930804,1106.4605 182.907052,1107.43625 L196.534521,1121.05375 C197.00377,1121.5225 197.26752,1122.1585 197.26752,1122.8215 C197.26752,1123.48475 197.00402,1124.12075 196.535271,1124.58975 L192.029281,1129.0955 C194.285776,1132.9305 195.985773,1137.03275 197.10102,1141.33425 L203.499756,1141.33425 Z M150.657375,1116.4165 C152.034872,1116.429 153.148869,1117.55375 153.140119,1118.93175 C153.131869,1120.307 152.019622,1121.4165 150.645875,1121.4165 C150.623875,1121.41675 150.601625,1121.41625 150.579125,1121.4155 C149.223878,1121.38575 148.12713,1120.2775 148.12763,1118.9155 C148.12788,1117.5225 149.268378,1116.39475 150.657375,1116.4165 Z M187.998291,1153.75775 C187.999791,1153.81075 187.999791,1153.86325 187.999791,1153.9165 C187.999791,1153.97225 187.999541,1154.02825 187.997541,1154.0855 C187.919041,1171.76575 175.543819,1186.59575 158.999856,1190.44425 L158.999856,1217.5 C158.999856,1222.187 155.186864,1226 150.499875,1226 C145.812886,1226 141.999894,1222.187 141.999894,1217.5 L141.999894,1190.444 C125.459181,1186.59625 113.085459,1171.771 113.002209,1154.09525 C112.999959,1154.035 112.999959,1153.976 112.999959,1153.916 C112.999959,1153.86625 112.999959,1153.8165 113.001459,1153.76575 C113.068709,1136.981 124.382934,1122.18275 140.563897,1117.747 C141.894644,1117.38225 143.270891,1118.1655 143.63589,1119.49725 C144.00114,1120.82875 143.217641,1122.20425 141.885894,1122.56925 C130.55492,1125.6755 121.978939,1134.647 119.073196,1145.65275 C120.477693,1144.1805 122.174939,1142.523 124.120184,1140.8465 C130.043421,1135.7415 139.23365,1129.68325 149.705127,1129.38775 C149.969126,1129.37925 150.233876,1129.3735 150.500125,1129.3735 C150.767624,1129.3735 151.033874,1129.3795 151.299623,1129.388 C161.7556,1129.687 170.951579,1135.77275 176.883066,1140.901 C178.829311,1142.58375 180.534057,1144.25225 181.946054,1145.73475 C179.069311,1134.742 170.53158,1125.75075 159.245605,1122.6055 C157.915608,1122.235 157.13786,1120.85625 157.508609,1119.52625 C157.879358,1118.1965 159.256855,1117.4195 160.587852,1117.78925 C176.676816,1122.27275 187.927541,1137.0495 187.998291,1153.75775 Z M150.499875,1134.37375 C139.724399,1134.37375 130.957419,1143.14025 130.957419,1153.91625 C130.957419,1164.69225 139.724149,1173.45875 150.499875,1173.45875 C161.275601,1173.45875 170.042331,1164.69225 170.042331,1153.91625 C170.042331,1143.14025 161.275601,1134.37375 150.499875,1134.37375 Z M128.005676,1144.107 C123.348436,1148.0145 120.032444,1151.96125 118.551447,1153.8965 C120.076694,1155.869 123.413686,1159.804 127.971426,1163.6475 C126.676929,1160.66225 125.95768,1157.37175 125.95768,1153.91625 C125.95768,1150.4305 126.689679,1147.113 128.005676,1144.107 Z M153.999867,1217.5 L153.999867,1191.2515 C152.84712,1191.35875 151.680122,1191.41625 150.499875,1191.41625 C149.319628,1191.41625 148.15263,1191.35875 146.999883,1191.2515 L146.999883,1217.5 C146.999883,1219.43 148.569879,1221 150.499875,1221 C152.429871,1221 153.999867,1219.43 153.999867,1217.5 Z M150.499875,1186.41625 C165.570091,1186.41625 178.275812,1176.10575 181.937054,1162.169 C180.530557,1163.644 178.829811,1165.3055 176.879816,1166.986 C170.956579,1172.091 161.76635,1178.14925 151.294873,1178.44475 C151.030874,1178.45325 150.766124,1178.459 150.499875,1178.459 C150.232376,1178.459 149.966126,1178.453 149.700377,1178.4445 C139.24465,1178.1455 130.048421,1172.05975 124.117184,1166.93175 C122.163939,1165.243 120.454443,1163.56875 119.039446,1162.0825 C122.670688,1176.06325 135.398659,1186.41625 150.499875,1186.41625 Z M172.994574,1163.72575 C177.651814,1159.818 180.967806,1155.87125 182.448803,1153.936 C180.923556,1151.96375 177.586564,1148.02875 173.028824,1144.18525 C174.323321,1147.1705 175.04257,1150.46075 175.04257,1153.91625 C175.04257,1157.402 174.310571,1160.71975 172.994574,1163.72575 Z M158.564357,1161.08875 C159.356105,1162.22 159.081106,1163.77875 157.950358,1164.57075 C155.759113,1166.10525 153.182869,1166.91625 150.500125,1166.91625 C143.331891,1166.91625 137.500154,1161.0845 137.500154,1153.91625 C137.500154,1146.748 143.331891,1140.91625 150.500125,1140.91625 C151.880872,1140.91625 153.000119,1142.03575 153.000119,1143.41625 C153.000119,1144.79675 151.880872,1145.91625 150.500125,1145.91625 C146.088885,1145.91625 142.500143,1149.505 142.500143,1153.91625 C142.500143,1158.3275 146.088885,1161.91625 150.500125,1161.91625 C152.151371,1161.91625 153.735868,1161.41775 155.082365,1160.475 C156.213612,1159.683 157.772359,1159.958 158.564357,1161.08875 Z M160.999851,1151.41625 C162.380598,1151.41625 163.499846,1152.53575 163.499846,1153.916 L163.499346,1154.043 C163.484096,1155.41425 162.367848,1156.51525 161.000101,1156.51525 C160.990601,1156.51525 160.981101,1156.51525 160.971601,1156.515 C159.591105,1156.5 158.484357,1155.368 158.499607,1153.9875 L158.499857,1153.91625 C158.499857,1152.53575 159.619104,1151.41625 160.999851,1151.41625 Z M167.827836,1203.95925 C168.219335,1205.28325 167.464087,1206.67425 166.14034,1207.06625 L166.00584,1207.1055 C165.773341,1207.17275 165.538841,1207.205 165.308342,1207.205 C164.224094,1207.205 163.225596,1206.494 162.908347,1205.4005 C162.523598,1204.0745 163.286846,1202.68775 164.612843,1202.303 L164.720843,1202.2715 C166.04459,1201.88025 167.435837,1202.635 167.827836,1203.95925 Z M178.107813,1199.11625 C178.772561,1200.3265 178.330312,1201.8465 177.120315,1202.51125 L176.902316,1202.63025 C176.524066,1202.83475 176.116317,1202.932 175.714568,1202.932 C174.82632,1202.932 173.966322,1202.45775 173.513823,1201.6215 C172.856575,1200.407 173.308324,1198.89 174.522571,1198.23275 L174.71282,1198.129 C175.923068,1197.46425 177.442814,1197.90625 178.107813,1199.11625 Z M187.118293,1192.19425 C188.02454,1193.23575 187.915041,1194.81475 186.873543,1195.721 L186.689543,1195.88025 C186.217295,1196.28775 185.636046,1196.48725 185.057797,1196.48725 C184.355799,1196.48725 183.65805,1196.19325 183.163551,1195.62 C182.261803,1194.57425 182.378303,1192.9955 183.423801,1192.094 L183.5908,1191.9495 C184.632548,1191.043 186.211545,1191.15225 187.118293,1192.19425 Z M202.841507,1162.55125 C204.191004,1162.84175 205.049752,1164.17175 204.759503,1165.52125 L204.708253,1165.75625 C204.452253,1166.9245 203.417506,1167.7215 202.268758,1167.7215 C202.091509,1167.7215 201.911509,1167.70275 201.73126,1167.66325 C200.382513,1167.36775 199.528765,1166.03475 199.824514,1164.686 L199.871514,1164.4695 C200.162013,1163.1195 201.49126,1162.2615 202.841507,1162.55125 Z M194.462526,1183.52575 C195.566273,1184.35475 195.789273,1185.922 194.960775,1187.026 L194.817525,1187.2165 C194.326026,1187.8675 193.577528,1188.2105 192.82028,1188.2105 C192.295531,1188.2105 191.766782,1188.04575 191.315783,1187.7055 C190.213786,1186.8735 189.994786,1185.30575 190.826784,1184.20375 L190.962284,1184.0235 C191.791282,1182.9195 193.358528,1182.69675 194.462526,1183.52575 Z M199.781014,1173.48725 C201.038261,1174.05725 201.59601,1175.5385 201.026261,1176.796 L200.922511,1177.0225 C200.500512,1177.937 199.596264,1178.47525 198.651267,1178.47525 C198.300517,1178.47525 197.944268,1178.40125 197.605019,1178.2445 C196.351272,1177.66575 195.804273,1176.18025 196.383022,1174.92675 L196.472021,1174.7325 C197.04177,1173.47475 198.523267,1172.91775 199.781014,1173.48725 Z M104.698478,1175.10175 C105.282727,1176.35275 104.742478,1177.8405 103.491731,1178.425 C103.149482,1178.58475 102.789232,1178.6605 102.434983,1178.6605 C101.494235,1178.6605 100.593237,1178.127 100.168488,1177.21825 L100.064239,1176.99275 C99.4867399,1175.7385 100.034989,1174.25375 101.289236,1173.67625 C102.542983,1173.098 104.02798,1173.64675 104.605728,1174.90125 L104.698478,1175.10175 Z M101.193986,1164.76925 C101.494235,1166.117 100.644987,1167.45275 99.2974903,1167.75325 C99.1144907,1167.794 98.9314911,1167.8135 98.7514916,1167.8135 C97.6059941,1167.8135 96.5732465,1167.02125 96.313747,1165.8565 L96.2602472,1165.6125 C95.9679978,1164.263 96.8252459,1162.93225 98.1744929,1162.64 C99.5232398,1162.348 100.854737,1163.20475 101.146986,1164.55425 L101.193986,1164.76925 Z M110.351215,1184.437 C111.190714,1185.5335 110.982464,1187.10275 109.886216,1187.942 C109.432967,1188.28925 108.898469,1188.4575 108.36822,1188.4575 C107.616472,1188.4575 106.873723,1188.12 106.381474,1187.47725 L106.230975,1187.2795 C105.397727,1186.17825 105.614476,1184.6105 106.715474,1183.77725 C107.816471,1182.944 109.384468,1183.16075 110.217716,1184.26175 L110.351215,1184.437 Z M126.909428,1198.464 C128.130175,1199.10925 128.596924,1200.6215 127.951926,1201.8425 C127.503677,1202.6905 126.636179,1203.175 125.739181,1203.175 C125.345432,1203.175 124.945933,1203.08175 124.573433,1202.885 L124.353434,1202.76775 C123.136687,1202.115 122.679438,1200.5995 123.332186,1199.383 C123.984685,1198.16625 125.500431,1197.709 126.716929,1198.3615 L126.909428,1198.464 Z M117.872948,1192.3475 C118.926946,1193.23925 119.058696,1194.81675 118.166948,1195.87125 C117.672699,1196.45575 116.967201,1196.7565 116.257202,1196.7565 C115.686703,1196.7565 115.113205,1196.5625 114.643706,1196.16525 L114.454456,1196.004 C113.405709,1195.10625 113.283209,1193.52825 114.180957,1192.479 C115.078705,1191.42975 116.656701,1191.307 117.705949,1192.2055 L117.872948,1192.3475 Z M136.958905,1202.46525 C138.288903,1202.83725 139.065151,1204.2165 138.693152,1205.546 C138.384402,1206.6505 137.380155,1207.3735 136.286907,1207.3735 C136.064158,1207.3735 135.837658,1207.3435 135.612409,1207.2805 L135.478409,1207.243 C134.150912,1206.86375 133.382164,1205.48 133.761413,1204.1525 C134.140662,1202.825 135.524409,1202.05575 136.851906,1202.4355 L136.958905,1202.46525 Z" id="view" fill="url(#linearGradient-1)" fill-rule="nonzero"></path>
    </g>
</svg>