<?xml version="1.0" encoding="UTF-8"?>
<svg width="32px" height="27px" viewBox="0 0 32 27" version="1.1" xmlns="http://www.w3.org/2000/svg" xmlns:xlink="http://www.w3.org/1999/xlink">
    <!-- Generator: Sketch 48.2 (47327) - http://www.bohemiancoding.com/sketch -->
    <title>Twitter-color</title>
    <desc>Created with Sketch.</desc>
    <defs></defs>
    <g id="3-Capital-Trading-Copy-2" stroke="none" stroke-width="1" fill="none" fill-rule="evenodd" transform="translate(-958.000000, -3061.000000)" opacity="0.599999964">
        <path d="M990,3064.19632 C988.824206,3064.73846 987.558256,3065.10509 986.230322,3065.26891 C987.58643,3064.42644 988.626988,3063.09057 989.117215,3061.49924 C987.847508,3062.27931 986.444444,3062.8468 984.945589,3063.15103 C983.751013,3061.82687 982.04367,3061 980.154135,3061 C976.530962,3061 973.591477,3064.052 973.591477,3067.81582 C973.591477,3068.35016 973.647825,3068.86891 973.760521,3069.36815 C968.304162,3069.08342 963.467629,3066.3727 960.227622,3062.2442 C959.662264,3063.25439 959.339203,3064.42644 959.339203,3065.67454 C959.339203,3068.03814 960.498092,3070.12481 962.259905,3071.34756 C961.185537,3071.31441 960.171274,3071.00433 959.284733,3070.49729 L959.284733,3070.58115 C959.284733,3073.88472 961.548042,3076.6403 964.553266,3077.26436 C964.002935,3077.42427 963.422551,3077.50423 962.823384,3077.50423 C962.400775,3077.50423 961.987556,3077.46327 961.587486,3077.38332 C962.423314,3080.09014 964.846276,3082.06176 967.720021,3082.11441 C965.473616,3083.94366 962.641193,3085.0338 959.566473,3085.0338 C959.036802,3085.0338 958.512766,3085.0026 958,3084.9402 C960.905676,3086.87086 964.357927,3088 968.063744,3088 C980.140987,3088 986.743089,3077.61538 986.743089,3068.60758 C986.743089,3068.31116 986.737454,3068.01473 986.726184,3067.72416 C988.009039,3066.76273 989.12285,3065.56338 990,3064.19632" id="Twitter" fill="#FFFFFF"></path>
    </g>
</svg>