<svg width="128" height="128" xmlns="http://www.w3.org/2000/svg"><defs><linearGradient x1="100%" y1="0%" x2="0%" y2="100%" id="a"><stop stop-color="#007AAA" offset="0%"/><stop stop-color="#007AAA" offset="100%"/></linearGradient></defs><path d="M151 1327.5c-26.192 0-47.5 21.309-47.5 47.5s21.308 47.5 47.5 47.5c26.191 0 47.5-21.309 47.5-47.5s-21.309-47.5-47.5-47.5zm-20.827 10.465a25.882 25.882 0 0 0-4.737 10.811 20.76 20.76 0 0 1-6.018-2.184 42.791 42.791 0 0 1 10.755-8.628zm-13.912 12.578a25.72 25.72 0 0 0 8.741 3.234v18.723h-16.426a42.249 42.249 0 0 1 7.686-21.957zm0 48.913a42.248 42.248 0 0 1-7.685-21.956h16.426v18.723a25.721 25.721 0 0 0-8.74 3.233zm3.157 3.952a20.754 20.754 0 0 1 6.017-2.184 25.885 25.885 0 0 0 4.738 10.812 42.789 42.789 0 0 1-10.755-8.628zm29.082 13.927c-8.961-1.07-16.208-7.8-18.044-16.505H148.5v16.505zm0-21.505h-18.498v-18.33H148.5v18.33zm0-23.33h-18.498v-18.33H148.5v18.33zm0-23.33h-18.044c1.837-8.706 9.083-15.436 18.044-16.505v16.505zm37.239 1.373a42.25 42.25 0 0 1 7.685 21.957h-16.426v-18.723a25.715 25.715 0 0 0 8.74-3.234zm-3.157-3.951a20.754 20.754 0 0 1-6.017 2.184 25.885 25.885 0 0 0-4.738-10.812 42.789 42.789 0 0 1 10.755 8.628zm-29.082-13.927c8.961 1.069 16.208 7.799 18.044 16.505H153.5v-16.505zm0 21.505h18.498v18.33H153.5v-18.33zm0 23.33h18.498v18.33H153.5v-18.33zm0 39.835v-16.505h18.044c-1.837 8.706-9.083 15.436-18.044 16.505zm18.327-5.3a25.88 25.88 0 0 0 4.738-10.811 20.76 20.76 0 0 1 6.017 2.184 42.791 42.791 0 0 1-10.755 8.628zm13.911-12.578a25.72 25.72 0 0 0-8.74-3.234V1377.5h16.427a42.249 42.249 0 0 1-7.687 21.957zm2.762 24.351a2.5 2.5 0 0 1-.599 3.485C177.069 1434.952 164.308 1439 151 1439a63.79 63.79 0 0 1-21.456-3.688 2.5 2.5 0 0 1 1.676-4.71A58.824 58.824 0 0 0 151 1434c12.268 0 24.03-3.731 34.015-10.79a2.5 2.5 0 0 1 3.485.598zm-13.55-108.173a2.5 2.5 0 1 1-1.873 4.636c-7.015-2.834-14.443-4.271-22.077-4.271-12.583 0-24.593 3.909-34.73 11.303a2.498 2.498 0 0 1-3.493-.546 2.5 2.5 0 0 1 .547-3.493C124.322 1315.241 137.35 1311 151 1311c8.279 0 16.337 1.56 23.95 4.635zm27.415 21.19C210.637 1347.916 215 1361.069 215 1375c0 8.329-1.578 16.432-4.69 24.085a2.501 2.501 0 0 1-4.631-1.884C208.546 1390.15 210 1382.68 210 1375c0-12.722-3.946-24.74-11.432-34.903a9.464 9.464 0 0 1-4.081.916 9.437 9.437 0 0 1-6.718-2.783 9.438 9.438 0 0 1-2.782-6.717c0-2.537.988-4.923 2.782-6.717a9.438 9.438 0 0 1 6.718-2.783c2.537 0 4.923.988 6.718 2.783a9.438 9.438 0 0 1 2.782 6.717 9.43 9.43 0 0 1-1.622 5.312zm-4.696-2.13a4.47 4.47 0 0 0 1.318-3.182 4.47 4.47 0 0 0-1.318-3.182 4.47 4.47 0 0 0-3.182-1.318 4.47 4.47 0 0 0-3.182 1.318 4.47 4.47 0 0 0-1.318 3.182 4.47 4.47 0 0 0 1.318 3.182 4.47 4.47 0 0 0 3.182 1.318 4.47 4.47 0 0 0 3.182-1.318zm-84.853 78.489c2.924 2.924 2.924 7.682 0 10.606a7.477 7.477 0 0 1-5.303 2.193 7.477 7.477 0 0 1-5.303-2.193c-2.412-2.411-2.832-6.07-1.266-8.919-.015-.017-.032-.033-.046-.05C91.806 1403.394 87 1389.625 87 1375c0-6.79 1.059-13.477 3.148-19.874a2.5 2.5 0 1 1 4.753 1.552A58.925 58.925 0 0 0 92 1375c0 13.413 4.385 26.043 12.682 36.542a7.512 7.512 0 0 1 8.134 1.642zm-3.535 7.07c.472-.471.732-1.1.732-1.767 0-.668-.26-1.296-.732-1.768a2.484 2.484 0 0 0-1.768-.732c-.668 0-1.296.26-1.768.732a2.484 2.484 0 0 0-.732 1.768c0 .668.26 1.295.732 1.768.472.472 1.1.732 1.768.732.668 0 1.295-.26 1.768-.732zm-.001-90.509a2.52 2.52 0 0 1 .733 1.768 2.52 2.52 0 0 1-.733 1.767 2.519 2.519 0 0 1-1.767.733 2.519 2.519 0 0 1-1.768-.733 2.519 2.519 0 0 1-.733-1.767c0-.658.268-1.303.733-1.768a2.519 2.519 0 0 1 1.767-.732c.66 0 1.303.267 1.768.732zm86.975 86.975a2.52 2.52 0 0 1 .733 1.767 2.52 2.52 0 0 1-.733 1.768 2.519 2.519 0 0 1-1.767.732 2.519 2.519 0 0 1-1.768-.732 2.519 2.519 0 0 1-.732-1.768c0-.657.267-1.302.732-1.767a2.519 2.519 0 0 1 1.768-.733 2.52 2.52 0 0 1 1.767.733z" fill="url(#a)" transform="translate(-87 -1311)"/></svg>