<svg width="32" height="31" xmlns="http://www.w3.org/2000/svg"><path d="M31.934 18.75v11.807H25.09V19.54c0-2.767-.99-4.656-3.468-4.656-1.89 0-3.016 1.273-3.512 2.504-.18.44-.227 1.053-.227 1.669v11.499h-6.846s.092-18.657 0-20.59h6.846v2.918l-.045.067h.045v-.067c.91-1.4 2.534-3.402 6.17-3.402 4.504 0 7.881 2.943 7.881 9.267zM3.874.041C1.532.041 0 1.578 0 3.598c0 1.977 1.488 3.56 3.783 3.56h.046c2.388 0 3.873-1.583 3.873-3.56C7.657 1.578 6.217.041 3.874.041zM.407 30.557H7.25V9.967H.407v20.59z" fill="#FFF" opacity=".6"/></svg>