<svg width="33" height="36" xmlns="http://www.w3.org/2000/svg"><path d="M17.128 2.28v18.51c0 4.107-.457 4.668-5.27 4.984v1.474h15.564v-1.474c-4.99-.316-5.446-.913-5.446-4.984V2.183c4.443.543 7.241 2.886 8.489 7.807l1.588-.351c-.315-2.913-.703-5.125-1.124-8.038-1.475-.246-5.27-1.476-9.767-1.476C9.444.125.904 6.685.26 16.792h5.794C6.098 9.988 9.933 3.552 17.128 2.28z"/><path d="M20.24 33.081c-7.614 0-13.255-5.496-14.087-13.948h-5.9C.78 26.927 6.873 35.08 19.817 35.08c3.9 0 8.54-1.123 10.085-1.474.914-1.649 2.356-5.686 3.057-8.135l-1.511-.595c-2.775 5.292-5.762 8.204-11.208 8.204z"/></svg>