<svg width="28" height="30" xmlns="http://www.w3.org/2000/svg"><g fill="#FFF" opacity=".3"><path d="M14.51 1.813v15.578c0 3.456-.393 3.929-4.534 4.194v1.241h13.389v-1.24c-4.292-.266-4.685-.769-4.685-4.195V1.73c3.822.458 6.23 2.43 7.302 6.571l1.367-.295c-.272-2.452-.605-4.313-.967-6.765C25.112 1.035 21.848 0 17.98 0 7.9 0 .554 5.52 0 14.026h4.984C5.02 8.301 8.32 2.884 14.51 1.813z"/><path d="M17.111 28.283c-6.518 0-11.347-4.72-12.06-11.979H0C.452 22.997 5.667 30 16.75 30c3.339 0 7.31-.964 8.633-1.266.782-1.416 2.017-4.883 2.617-6.986l-1.294-.511c-2.375 4.544-4.932 7.046-9.595 7.046z"/></g></svg>