<svg width="65" height="128" xmlns="http://www.w3.org/2000/svg"><defs><linearGradient x1="100%" y1="0%" x2="0%" y2="100%" id="a"><stop stop-color="#007AAA" offset="0%"/><stop stop-color="#007AAA" offset="100%"/></linearGradient></defs><path d="M174.493 1599h-3.914a24.282 24.282 0 0 0 9.178-23.597 2.504 2.504 0 0 0-2.027-2.021c-7.86-1.402-15.919 1.114-21.555 6.731a24.24 24.24 0 0 0-2.249 2.588v-17.095l23.192-16.574a2.498 2.498 0 0 0 1.047-2.032v-8.016a8.33 8.33 0 0 0 3.382-2.048 8.281 8.281 0 0 0 2.453-5.903 8.28 8.28 0 0 0-2.453-5.903c-3.266-3.255-8.58-3.255-11.845 0a8.338 8.338 0 0 0 0 11.806 8.33 8.33 0 0 0 3.446 2.07v6.71l-19.222 13.738v-10.707c0-1.38-1.123-2.5-2.508-2.5a2.504 2.504 0 0 0-2.508 2.5v20.467l-19.062-13.623v-16.585a8.328 8.328 0 0 0 3.446-2.07c3.266-3.254 3.266-8.55 0-11.806-3.266-3.255-8.58-3.254-11.845 0-3.265 3.255-3.265 8.552 0 11.807a8.324 8.324 0 0 0 3.382 2.048v17.89c0 .805.39 1.562 1.047 2.031l23.032 16.46v6.995a24.227 24.227 0 0 0-1.99-2.247c-5.637-5.617-13.695-8.134-21.555-6.732a2.504 2.504 0 0 0-2.028 2.021 24.282 24.282 0 0 0 9.178 23.597h-4.173c-4.149 0-7.524 3.365-7.524 7.5 0 3.754 2.781 6.872 6.398 7.416l6.547 27.168a2.507 2.507 0 0 0 2.439 1.916h30.432c1.16 0 2.168-.792 2.44-1.916l6.546-27.168c3.616-.544 6.398-3.662 6.398-7.416 0-4.136-3.376-7.5-7.525-7.5zm-1.244-70.335a3.355 3.355 0 0 1 2.375-.979 3.355 3.355 0 0 1 3.36 3.347 3.32 3.32 0 0 1-.985 2.368 3.37 3.37 0 0 1-4.75 0 3.345 3.345 0 0 1 0-4.736zm-48.252 4.736a3.344 3.344 0 0 1 0-4.736 3.355 3.355 0 0 1 2.375-.979c.86 0 1.72.327 2.375.98a3.344 3.344 0 0 1 0 4.735 3.37 3.37 0 0 1-4.75 0zm34.726 50.248a19.423 19.423 0 0 1 15.332-5.58 19.286 19.286 0 0 1-5.598 15.282 19.393 19.393 0 0 1-11.755 5.55l6.278-6.258c.98-.977.98-2.56 0-3.536a2.514 2.514 0 0 0-3.547 0l-6.278 6.257a19.279 19.279 0 0 1 5.568-11.715zm-31.683-5.58a19.423 19.423 0 0 1 15.332 5.58 19.277 19.277 0 0 1 5.542 11.476l-6.038-6.018a2.514 2.514 0 0 0-3.548 0 2.493 2.493 0 0 0 0 3.535l6.3 6.28a19.395 19.395 0 0 1-11.99-5.571 19.288 19.288 0 0 1-5.598-15.282zm46.453 30.93h-12.666a2.504 2.504 0 0 0-2.508 2.5c0 1.381 1.123 2.5 2.508 2.5h8.614l-5.784 24H138.18l-5.784-24h8.74a2.504 2.504 0 0 0 2.508-2.5c0-1.38-1.123-2.5-2.509-2.5h-12.791a2.507 2.507 0 0 1-2.508-2.5c0-1.378 1.125-2.5 2.508-2.5h46.15a2.507 2.507 0 0 1 2.508 2.5c0 1.379-1.125 2.5-2.508 2.5zm-21.171.733a2.536 2.536 0 0 0-1.774-.733c-.662 0-1.306.268-1.775.733a2.512 2.512 0 0 0-.733 1.767c0 .658.266 1.303.733 1.768a2.537 2.537 0 0 0 1.775.732c.66 0 1.305-.267 1.774-.732.466-.465.732-1.11.732-1.768 0-.657-.266-1.302-.732-1.767zM151.418 1515c5.255 0 9.531 4.262 9.531 9.5s-4.276 9.5-9.531 9.5c-5.255 0-9.531-4.262-9.531-9.5s4.276-9.5 9.531-9.5zm0 14c2.49 0 4.515-2.019 4.515-4.5s-2.026-4.5-4.515-4.5c-2.49 0-4.515 2.019-4.515 4.5s2.026 4.5 4.515 4.5zm1.773 9.573c.467.465.735 1.11.735 1.767 0 .658-.268 1.303-.735 1.768a2.531 2.531 0 0 1-1.773.732c-.66 0-1.307-.267-1.773-.732a2.515 2.515 0 0 1-.735-1.768c0-.657.268-1.302.735-1.767a2.531 2.531 0 0 1 1.773-.733c.66 0 1.307.268 1.773.733z" fill="url(#a)" transform="translate(-119 -1515)"/></svg>