<svg width="264" height="116" xmlns="http://www.w3.org/2000/svg"><g fill="#FFF"><path d="M129.98 5.289v42.943c0 9.529-1.057 10.831-12.206 11.563v3.42h36.045v-3.42c-11.553-.732-12.611-2.117-12.611-11.563V5.063c10.288 1.262 16.769 6.698 19.657 18.114l3.68-.815c-.732-6.757-1.628-11.89-2.604-18.647C158.524 3.144 149.735.29 139.322.29 112.186.29 92.41 15.508 90.92 38.957h13.416c.101-15.785 8.983-30.717 25.646-33.668z"/><path d="M137.188 76.749c-17.634 0-30.696-12.751-32.623-32.36H90.901c1.223 18.08 15.33 37 45.307 37 9.033 0 19.777-2.606 23.356-3.42 2.115-3.826 5.454-13.193 7.078-18.873l-3.5-1.381c-6.425 12.276-13.343 19.034-25.954 19.034zM19.726 110.154c-.225 0-.285.115-.368.566a4.78 4.78 0 0 1-.96 1.869c-1.132 1.307-2.664 1.588-5.184 1.588-3.79 0-8.914-3.342-8.914-10.085 0-2.762.538-5.441 2.604-7.338 1.246-1.132 2.86-1.758 5.32-1.758 2.604 0 4.812.768 5.745 1.758a4.034 4.034 0 0 1 1.104 2.606c0 .395.06.626.285.626.226 0 .313-.23.34-.654.056-.566.028-2.122.084-3.061.055-.94.142-1.33.142-1.556 0-.226-.115-.313-.423-.34-.85-.084-1.757-.341-2.833-.461a28.598 28.598 0 0 0-4.103-.28c-4.217 0-6.899 1.132-8.945 3A10.665 10.665 0 0 0 .308 104.4c0 2.762.736 5.92 3.51 8.355 2.575 2.237 5.831 3.088 9.709 3.088 1.812 0 3.964-.197 5.096-.649a1 1 0 0 0 .735-.824c.298-1.24.505-2.5.621-3.77 0-.248-.055-.446-.253-.446zm21.429 4.76a6.117 6.117 0 0 1-.92-.083c-.46-.088-1.164-.4-2.125-2.578-1.587-3.655-5.745-13.404-6.343-14.73-.253-.539-.368-.764-.736-.764-.252 0-.46.285-.735.962l-6.522 15.057c-.51 1.22-.92 1.956-2.065 2.126-.23 0-.51.028-.736.028a.248.248 0 0 0-.285.258c0 .198.142.253.46.253 1.301 0 2.63-.087 2.883-.087.796 0 1.955.087 2.76.087.258 0 .4-.055.4-.253s-.06-.258-.368-.258h-.368c-.768 0-.993-.253-.993-.681a4.445 4.445 0 0 1 .368-1.473l1.329-3.255c.06-.142.087-.17.23-.17h5.86a.235.235 0 0 1 .252.17l1.927 4.87a.382.382 0 0 1-.23.54c-.252.027-.308.114-.308.257 0 .143.28.166.736.198 2.093.055 3.905.055 4.783.055.879 0 1.077-.055 1.077-.253s-.092-.276-.331-.276zm-8.436-6.905h-4.815c-.083 0-.138-.055-.083-.17l2.406-5.985c.027-.087.055-.23.142-.23.088 0 .083.143.115.23l2.346 6.035c.032.055 0 .11-.11.11v.01zM49.985 97.21c-1.131 0-3.114.055-4.14.055-.707 0-2.299-.055-3.591-.055-.368 0-.566.055-.566.225s.166.254.423.254c.332-.01.664.02.99.087.795.226 1.02.46 1.075 1.303.055.842.028 1.445.028 5.1v4.249c0 2.21 0 4.106-.11 5.128-.088.709-.23 1.16-.736 1.275-.289.062-.584.09-.879.083-.313 0-.395.142-.395.257 0 .116.17.254.46.254.993 0 2.575-.088 3.145-.088.649 0 2.406.088 4.075.088.253 0 .46-.088.46-.254 0-.165-.11-.257-.395-.257-.426 0-.852-.028-1.274-.083-.736-.115-.879-.566-.961-1.248-.115-1.05-.115-2.946-.115-5.155V98.88c0-.258.06-.4.197-.46a4.03 4.03 0 0 1 1.077-.111 3.747 3.747 0 0 1 2.492.92 4.504 4.504 0 0 1 1.472 3.573c0 2.462-1.954 3.908-3.339 3.908-.538 0-.823.115-.823.313s.17.253.313.253c.244.027.49.038.735.032 3.537 0 6.256-2.44 6.256-5.837a4.186 4.186 0 0 0-1.247-2.89c-.382-.355-1.513-1.372-4.627-1.372zM66.8 114.914a9.453 9.453 0 0 1-1.274-.083c-.736-.115-.92-.46-.993-1.137-.115-1.017-.115-2.946-.115-5.266v-4.249c0-3.655 0-4.336.06-5.1.055-.852.253-1.192.92-1.303.24-.057.488-.086.735-.087.253 0 .396-.056.396-.281 0-.143-.198-.198-.51-.198-.962 0-2.576.055-3.197.055-.708 0-2.406-.055-3.34-.055-.4 0-.597.055-.597.198 0 .225.142.28.4.28.31-.008.62.03.92.116.538.17.796.46.85 1.275.056.814.028 1.445.028 5.1v4.249c0 2.301 0 4.249-.11 5.238-.087.71-.23 1.05-.736 1.165-.289.062-.583.09-.878.083-.313 0-.396.142-.396.257 0 .116.17.254.46.254.993 0 2.69-.088 3.256-.088.681 0 2.378.088 4.02.088.285 0 .46-.088.46-.254 0-.165-.078-.257-.359-.257zm15.597-16.176c2.235.028 2.883.764 2.943 1.381l.028.258c.027.368.082.46.28.46s.198-.138.23-.396c0-.621.055-2.407.055-2.918 0-.368-.027-.506-.197-.506-.088 0-.286.055-.681.11a10.57 10.57 0 0 1-1.697.115H73.239a22.715 22.715 0 0 1-2.493-.115c-.62-.083-.878-.28-1.076-.28-.198 0-.225.137-.28.46-.06.197-.538 2.522-.538 2.918 0 .253.055.396.225.396s.225-.11.28-.313c.099-.294.243-.571.428-.82.368-.538.961-.708 2.406-.736l3.707-.083v9.745c0 2.21 0 4.106-.11 5.128-.088.709-.23 1.16-.737 1.275a3.626 3.626 0 0 1-.878.083c-.313 0-.396.143-.396.258 0 .115.17.253.46.253.994 0 2.69-.088 3.257-.088.708 0 2.377.088 4.02.088.28 0 .482-.088.482-.253 0-.166-.115-.258-.4-.258a9.7 9.7 0 0 1-1.274-.083c-.736-.115-.874-.566-.961-1.247-.11-1.05-.143-2.947-.143-5.156v-9.731l3.179.055zm21.253 16.176a6.167 6.167 0 0 1-.92-.083c-.46-.088-1.159-.4-2.12-2.578-1.587-3.655-5.75-13.404-6.343-14.73-.253-.539-.368-.764-.736-.764-.253 0-.46.285-.735.962l-6.522 15.057c-.51 1.22-.92 1.956-2.07 2.126-.225 0-.506.028-.736.028a.244.244 0 0 0-.28.258c0 .198.142.253.46.253 1.301 0 2.635-.087 2.888-.087.791 0 1.955.087 2.76.087.257 0 .395-.055.395-.253s-.055-.258-.368-.258h-.368c-.763 0-.989-.253-.989-.681a4.445 4.445 0 0 1 .368-1.473l1.33-3.255c.06-.142.087-.17.225-.17h5.86a.24.24 0 0 1 .257.17l1.922 4.87a.378.378 0 0 1-.225.54c-.253.027-.313.114-.313.257 0 .143.285.166.736.198 2.097.055 3.91.055 4.788.055.878 0 1.072-.055 1.072-.253s-.106-.276-.336-.276zm-8.435-6.905h-4.811c-.083 0-.143-.055-.083-.17l2.406-5.985c.027-.087.055-.23.142-.23.088 0 .083.143.11.23l2.35 6.035c.028.055 0 .11-.123.11l.009.01zm22.527 3.508c-.198 0-.253.138-.28.368a2.901 2.901 0 0 1-.626 1.44c-.62.654-1.582.682-2.916.682-1.922 0-2.884-.143-3.311-.511-.538-.46-.538-1.98-.538-5.064v-4.248c0-3.655 0-4.337.06-5.1.055-.852.252-1.193.92-1.303.316-.06.638-.089.96-.088.313 0 .46-.083.46-.253 0-.17-.17-.226-.538-.226-.961 0-2.999.056-3.592.056-.68 0-2.267-.056-3.426-.056-.368 0-.538.056-.538.226s.142.253.427.253c.276-.007.551.023.819.088.791.225 1.021.46 1.076 1.302.055.843.028 1.446.028 5.1v4.25c0 2.209 0 4.105-.115 5.127-.083.71-.226 1.16-.736 1.275-.287.062-.58.09-.874.083-.313 0-.4.143-.4.258 0 .115.17.253.483.253.51 0 1.131-.027 1.725-.055a31.753 31.753 0 0 1 1.416-.032c1.021 0 2.065.032 3.312.06 1.246.027 2.69.082 4.475.082 1.301 0 1.412-.11 1.582-.649.192-.91.315-1.833.368-2.762-.018-.303-.074-.556-.22-.556zm28.313-17.709c-.258.032-.515.08-.768.143-.645.094-1.297.142-1.95.142H132.13c-.92 0-2.01-.06-2.833-.142a6.701 6.701 0 0 1-1.215-.34c-.17 0-.257.17-.34.538-.06.225-.598 2.803-.598 3.259 0 .308.06.46.258.46.197 0 .253-.115.312-.34.099-.353.254-.688.46-.99.424-.626 1.104-.764 2.76-.824l4.218-.11v11.604c0 2.605 0 4.842-.143 6.035-.083.82-.253 1.445-.819 1.56-.335.074-.677.11-1.02.11-.341 0-.46.088-.46.226s.197.286.565.286c1.131 0 2.916-.088 3.564-.088.796 0 2.576.088 4.448.088.308 0 .538-.088.538-.286 0-.198-.142-.225-.46-.225a12.238 12.238 0 0 1-1.444-.11c-.846-.116-1.016-.742-1.104-1.534-.142-1.22-.142-3.457-.142-6.062V95.594l3.569.083c2.52.055 3.284.852 3.339 1.588l.027.313c.028.424.088.566.313.566s.225-.17.253-.46c0-.737.087-2.693.087-3.287.019-.419-.004-.589-.207-.589zm39.118 21.106a6.117 6.117 0 0 1-.92-.083c-.46-.088-1.164-.4-2.125-2.578-1.582-3.655-5.745-13.404-6.338-14.73-.258-.539-.368-.764-.736-.764-.257 0-.46.285-.74.962l-6.522 15.057c-.364.87-.69 1.491-1.256 1.841a6.085 6.085 0 0 1-1.803-1.326c-1.5-1.5-3.251-3.682-5.46-6.403 2.434-1.951 3.45-3.54 3.45-5.326a4.208 4.208 0 0 0-1.752-3.314c-1.33-.879-3.141-1.017-4.728-1.017-.764 0-3.031.055-3.877.055-.51 0-2.098-.055-3.4-.055-.367 0-.565.055-.565.225s.17.254.428.254c.332-.01.663.02.989.087.79.226 1.02.46 1.076 1.303.055.842.028 1.445.028 5.1v4.249c0 2.21 0 4.106-.115 5.128-.083.709-.226 1.16-.736 1.275-.287.062-.58.09-.874.083-.313 0-.4.142-.4.257 0 .116.17.254.483.254.988 0 2.575-.088 3.058-.088.368 0 2.433.088 3.877.088.313 0 .51-.088.51-.254a.29.29 0 0 0-.312-.257 9.683 9.683 0 0 1-1.219-.083c-.763-.115-.874-.566-.961-1.275-.115-1.022-.143-2.891-.143-5.128v-.34a.18.18 0 0 1 .198-.199l2.24.055a.57.57 0 0 1 .46.17c.313.369 1.357 1.985 2.35 3.287 1.38 1.87 2.323 3.002 3.395 3.54a4.95 4.95 0 0 0 2.35.46h2.76a.712.712 0 0 0 .395-.082c.782 0 1.84.083 2.603.083.258 0 .4-.056.4-.254s-.06-.257-.368-.257h-.368c-.763 0-.993-.254-.993-.682a4.445 4.445 0 0 1 .368-1.473l1.334-3.254c.055-.143.082-.17.225-.17h5.86a.235.235 0 0 1 .252.17l1.928 4.87a.382.382 0 0 1-.23.539c-.253.027-.309.115-.309.257 0 .143.281.166.736.198 2.093.056 3.905.056 4.784.056.878 0 1.076-.056 1.076-.254s-.138-.257-.363-.257zm-27.205-8.613c-.423.313-.764.396-1.753.396a6.792 6.792 0 0 1-1.895-.226c-.17-.082-.23-.17-.23-.423V98.88a.295.295 0 0 1 .23-.34c.488-.072.98-.102 1.472-.088 1.472 0 3.79.879 3.79 4.28.014 1.98-.846 3.03-1.614 3.568zm18.77 1.699h-4.811c-.088 0-.143-.056-.088-.17l2.406-5.985c.027-.087.055-.23.142-.23.088 0 .083.143.115.23l2.346 6.035c.032.064 0 .12-.11.12zm17.178-10.79c-1.5 0-3.28.055-4.048.055-.768 0-2.3-.055-3.592-.055-.368 0-.565.055-.565.225s.17.254.423.254c.332-.01.663.02.989.087.795.226 1.02.46 1.076 1.303.055.842.027 1.445.027 5.1v4.249c0 2.21 0 4.106-.11 5.128-.087.709-.23 1.16-.736 1.275a3.76 3.76 0 0 1-.878.083c-.313 0-.396.142-.396.257 0 .116.17.254.46.254.51 0 1.136-.028 1.73-.056a31.618 31.618 0 0 1 1.416-.032c.621 0 1.527.06 2.516.143.989.083 2.07.143 2.976.143 4.599 0 7.216-1.699 8.347-2.836a9.33 9.33 0 0 0 2.719-6.711 8.423 8.423 0 0 0-2.35-6.118c-2.7-2.748-6.89-2.748-10.004-2.748zm6.683 15.522c-1.5 1.247-3.17 1.643-5.437 1.643-1.95 0-2.943-.51-3.256-.962-.198-.253-.253-1.105-.28-1.699-.028-.483-.056-2.324-.056-4.874v-3.03c0-1.9 0-3.884.028-4.704a.423.423 0 0 1 .308-.483c.5-.13 1.015-.187 1.531-.17 1.95 0 4.669.257 6.964 2.301 1.104.962 2.3 2.946 2.3 6.007.018 2.486-.488 4.636-2.102 5.97zm16.585 2.182c-.426 0-.852-.027-1.274-.083-.736-.115-.92-.46-.99-1.137-.114-1.017-.114-2.946-.114-5.266v-4.249c0-3.655 0-4.336.06-5.1.055-.852.253-1.192.92-1.303a3.19 3.19 0 0 1 .735-.087c.253 0 .396-.056.396-.281 0-.143-.198-.198-.51-.198-.962 0-2.576.055-3.197.055-.708 0-2.406-.055-3.34-.055-.4 0-.597.055-.597.198 0 .225.142.28.395.28.311-.008.621.031.92.116.538.17.796.46.851 1.275.055.814.028 1.445.028 5.1v4.249c0 2.301 0 4.249-.11 5.238-.088.71-.23 1.05-.737 1.165-.288.062-.583.09-.878.083-.313 0-.396.142-.396.257 0 .116.166.254.46.254.994 0 2.691-.088 3.257-.088.68 0 2.378.088 4.02.088.28 0 .482-.088.482-.254 0-.165-.096-.257-.381-.257zm23.498-17.704c-1.22 0-2.153.055-2.438.055-.538 0-1.867-.055-3.169-.055-.368 0-.62.027-.62.225s.082.254.395.254c.438-.022.878.026 1.301.142.594.226.819.65.846 2.127l.258 10.707h-.115c-.368-.34-3.68-3.742-5.377-5.413-3.624-3.54-7.358-7.365-7.671-7.674-.423-.428-.764-.796-1.076-.796-.313 0-.41.345-.41.805l-.225 14.27c-.032 2.095-.115 2.762-.768 2.919a5.211 5.211 0 0 1-1.132.11c-.225 0-.395.115-.395.258 0 .225.225.253.566.253 1.274 0 2.465-.087 2.69-.087.46 0 1.615.087 3.22.087.34 0 .57-.055.57-.253s-.143-.258-.428-.258c-.44.012-.88-.045-1.301-.17-.46-.17-.791-.737-.847-2.606l-.285-9.832h.083c.483.428 3.114 3.346 5.832 5.952 2.603 2.522 5.717 5.496 7.276 6.941.258.298.624.48 1.016.507.203 0 .4-.226.4-.764l.281-15.19c.028-1.359.226-1.782.92-1.98.248-.07.506-.099.764-.088.285 0 .427-.11.427-.253 0-.143-.267-.193-.588-.193zm22.499 9.179c-.818 0-2.12.055-2.916.055-.795 0-2.515-.055-3.822-.055-.335 0-.533.027-.533.225s.165.253.395.253c.323-.007.646.022.962.088.79.225 1.048.46 1.076 1.302.027.737.027 1.644.027 2.831v2.21a.796.796 0 0 1-.46.852 4.09 4.09 0 0 1-1.752.253c-5.321 0-8.665-3.766-8.665-8.953 0-2.947.92-4.728 2.3-5.865 1.724-1.38 3.454-1.413 4.81-1.413 2.806 0 4.674 1.077 5.41 1.841.5.545.8 1.245.846 1.984.027.198.087.309.257.309s.34-.17.34-.539a32.549 32.549 0 0 1 .17-3.963c0-.17-.059-.258-.34-.286-.597-.027-1.471-.17-1.982-.253a28.203 28.203 0 0 0-4.415-.396c-2.098 0-4.333.17-6.71 1.556a8.918 8.918 0 0 0-4.36 7.876c0 6.656 5.408 9.437 11.52 9.437 1.955 0 4.416-.258 6.085-1.078.313-.17.313-.197.313-.851v-2.66c0-1.193 0-2.155.028-2.892.027-.851.285-1.192.966-1.302a3.14 3.14 0 0 1 .676-.088.285.285 0 0 0 .312-.253c-.027-.198-.179-.225-.538-.225z"/></g></svg>