<svg width="32" height="28" xmlns="http://www.w3.org/2000/svg"><path d="M31.58 5.383L21.564.343a.35.35 0 0 0-.144-.035l-.01-.002a.361.361 0 0 0-.308.168L14.927 10.57l6.892 11.27 9.86-16.121a.238.238 0 0 0-.098-.336zm-19.92 1.64v10.88l9.611 4.833zm10.451 16.129l8.825 4.44c.481.242.876-.003.876-.544V7.29l-9.7 15.863zM10.6 5.434L1.357.784.772.49A.532.532 0 0 0 .536.427a.32.32 0 0 0-.253.115.487.487 0 0 0-.095.31V22.08c0 .36.262.789.584.95l9.082 4.57a.805.805 0 0 0 .355.092c.306 0 .52-.238.52-.639V5.645a.233.233 0 0 0-.129-.211z" fill="#FFF" opacity=".6"/></svg>