<svg width="111" height="128" xmlns="http://www.w3.org/2000/svg"><defs><linearGradient x1="100%" y1="0%" x2="0%" y2="100%" id="a"><stop stop-color="#007AAA" offset="0%"/><stop stop-color="#007AAA" offset="100%"/></linearGradient></defs><path d="M203.5 1141.334a2.5 2.5 0 0 1 2.5 2.5v10.099a2.5 2.5 0 0 1-2.5 2.493h-.007a2.5 2.5 0 0 1-2.493-2.508v-7.584h-5.876a2.5 2.5 0 0 1-2.444-1.975 42.762 42.762 0 0 0-5.916-14.277 2.5 2.5 0 0 1 .332-3.125l4.135-4.135-10.09-10.083-4.132 4.132a2.5 2.5 0 0 1-3.125.332 42.762 42.762 0 0 0-14.277-5.917 2.5 2.5 0 0 1-1.975-2.444V1103h-14.265v5.842a2.5 2.5 0 0 1-1.975 2.444 42.767 42.767 0 0 0-14.277 5.917 2.5 2.5 0 0 1-3.124-.332l-4.132-4.132-10.09 10.083 4.135 4.136a2.5 2.5 0 0 1 .332 3.124 42.762 42.762 0 0 0-5.917 14.277 2.5 2.5 0 0 1-2.444 1.975h-5.867l-.008 7.528v.064a2.5 2.5 0 0 1-5 0v-.127l.01-9.968a2.5 2.5 0 0 1 2.5-2.497h6.389a47.683 47.683 0 0 1 5.071-12.239l-4.506-4.505a2.5 2.5 0 0 1 .001-3.536l13.628-13.618a2.5 2.5 0 0 1 3.535 0l4.5 4.502a47.672 47.672 0 0 1 12.24-5.072v-6.366a2.5 2.5 0 0 1 2.5-2.5h19.264a2.5 2.5 0 0 1 2.5 2.5v6.366a47.672 47.672 0 0 1 12.24 5.072l4.5-4.501a2.5 2.5 0 0 1 3.535 0l13.628 13.617a2.499 2.499 0 0 1 0 3.536l-4.506 4.505a47.683 47.683 0 0 1 5.072 12.24h6.399zm-52.843-24.918a2.505 2.505 0 0 1 2.483 2.516 2.495 2.495 0 0 1-2.56 2.484 2.506 2.506 0 0 1-2.452-2.5 2.499 2.499 0 0 1 2.53-2.5zm37.341 37.342a4.81 4.81 0 0 1 0 .328c-.079 17.68-12.454 32.51-28.998 36.358v27.056c0 4.687-3.813 8.5-8.5 8.5-4.687 0-8.5-3.813-8.5-8.5v-27.056c-16.54-3.848-28.915-18.673-28.998-36.349-.002-.06-.002-.119-.002-.179l.001-.15c.068-16.785 11.382-31.583 27.563-36.019a2.5 2.5 0 0 1 1.322 4.822c-11.331 3.107-19.907 12.078-22.813 23.084a71.764 71.764 0 0 1 5.047-4.806c5.923-5.105 15.114-11.164 25.585-11.46a23.62 23.62 0 0 1 1.595.001c10.456.299 19.652 6.385 25.583 11.513a72.7 72.7 0 0 1 5.063 4.834c-2.877-10.993-11.414-19.984-22.7-23.13a2.5 2.5 0 1 1 1.342-4.816c16.089 4.484 27.34 19.26 27.41 35.969zm-37.498-19.384c-10.776 0-19.543 8.766-19.543 19.542 0 10.776 8.767 19.543 19.543 19.543s19.542-8.767 19.542-19.543-8.766-19.542-19.542-19.542zm-22.494 9.733c-4.658 3.908-7.974 7.854-9.455 9.79 1.526 1.972 4.863 5.907 9.42 9.75a24.402 24.402 0 0 1-2.013-9.73 24.4 24.4 0 0 1 2.048-9.81zM154 1217.5v-26.248a37.86 37.86 0 0 1-3.5.164 37.86 37.86 0 0 1-3.5-.164v26.248c0 1.93 1.57 3.5 3.5 3.5s3.5-1.57 3.5-3.5zm-3.5-31.084c15.07 0 27.776-10.31 31.437-24.247a71.735 71.735 0 0 1-5.057 4.817c-5.923 5.105-15.114 11.163-25.585 11.459-.264.008-.529.014-.795.014-.268 0-.534-.006-.8-.014-10.455-.3-19.652-6.385-25.583-11.513a72.75 72.75 0 0 1-5.078-4.85c3.632 13.981 16.36 24.334 31.46 24.334zm22.495-22.69c4.657-3.908 7.973-7.855 9.454-9.79-1.525-1.972-4.862-5.907-9.42-9.75a24.401 24.401 0 0 1 2.014 9.73c0 3.486-.732 6.804-2.048 9.81zm-14.43-2.637a2.5 2.5 0 0 1-.615 3.482 12.923 12.923 0 0 1-7.45 2.345c-7.168 0-13-5.832-13-13s5.832-13 13-13a2.5 2.5 0 0 1 0 5c-4.411 0-8 3.589-8 8 0 4.412 3.589 8 8 8a7.949 7.949 0 0 0 4.582-1.441 2.5 2.5 0 0 1 3.482.614zm2.435-9.673a2.5 2.5 0 0 1 2.5 2.5v.127a2.5 2.5 0 0 1-2.5 2.472h-.028a2.5 2.5 0 0 1-2.472-2.528v-.07a2.5 2.5 0 0 1 2.5-2.5zm6.828 52.543a2.5 2.5 0 0 1-1.688 3.107l-.134.04a2.501 2.501 0 0 1-1.393-4.802l.108-.032a2.5 2.5 0 0 1 3.107 1.687zm10.28-4.843a2.5 2.5 0 0 1-.988 3.395l-.218.12a2.499 2.499 0 0 1-2.38-4.398l.19-.104a2.5 2.5 0 0 1 3.396.987zm9.01-6.922a2.5 2.5 0 0 1-.244 3.527l-.184.16a2.49 2.49 0 0 1-1.632.606 2.5 2.5 0 0 1-1.634-4.393l.167-.144a2.5 2.5 0 0 1 3.527.244zm15.724-29.643a2.5 2.5 0 0 1 1.918 2.97l-.052.235a2.501 2.501 0 0 1-4.883-1.07l.047-.216a2.5 2.5 0 0 1 2.97-1.919zm-8.38 20.975a2.5 2.5 0 0 1 .499 3.5l-.143.19a2.497 2.497 0 0 1-3.502.49 2.5 2.5 0 0 1-.49-3.502l.136-.18a2.5 2.5 0 0 1 3.5-.498zm5.319-10.039a2.5 2.5 0 0 1 1.245 3.309l-.103.226a2.5 2.5 0 1 1-4.54-2.095l.089-.194a2.5 2.5 0 0 1 3.309-1.246zm-95.083 1.615a2.5 2.5 0 0 1-4.53 2.116l-.104-.225a2.5 2.5 0 1 1 4.542-2.092l.092.2zm-3.504-10.333a2.5 2.5 0 0 1-4.88 1.088l-.054-.245a2.5 2.5 0 0 1 4.887-1.058l.047.215zm9.157 19.668a2.5 2.5 0 0 1-3.97 3.04l-.15-.197a2.5 2.5 0 1 1 3.987-3.018l.133.175zm16.558 14.027a2.5 2.5 0 0 1-2.336 4.421l-.22-.117a2.5 2.5 0 0 1 2.364-4.407l.192.103zm-9.036-6.116a2.5 2.5 0 0 1-3.23 3.817l-.189-.161a2.5 2.5 0 0 1 3.252-3.798l.167.142zm19.086 10.117a2.5 2.5 0 1 1-1.347 4.816l-.134-.038a2.5 2.5 0 0 1 1.374-4.807l.107.03z" fill="url(#a)" transform="translate(-95 -1098)"/></svg>