<svg width="32" height="27" xmlns="http://www.w3.org/2000/svg"><path d="M32 3.196a12.702 12.702 0 0 1-3.77 1.073 6.79 6.79 0 0 0 2.887-3.77 12.837 12.837 0 0 1-4.171 1.652C25.75.827 24.044 0 22.154 0c-3.623 0-6.563 3.052-6.563 6.816 0 .534.057 1.053.17 1.552-5.457-.285-10.293-2.995-13.533-7.124a7.007 7.007 0 0 0-.889 3.43c0 2.364 1.16 4.45 2.92 5.674a6.386 6.386 0 0 1-2.974-.85v.083c0 3.304 2.263 6.06 5.268 6.683-.55.16-1.13.24-1.73.24a6.31 6.31 0 0 1-1.236-.12c.836 2.706 3.26 4.678 6.133 4.73-2.246 1.83-5.079 2.92-8.154 2.92-.53 0-1.053-.031-1.566-.094C2.906 25.87 6.358 27 10.064 27c12.077 0 18.68-10.385 18.68-19.392 0-.297-.007-.593-.018-.884A13.575 13.575 0 0 0 32 3.196" fill="#FFF" fill-rule="evenodd" opacity=".6"/></svg>